<?xml version="1.0" encoding="UTF-8" standalone="no"?>
<!-- Created with Inkscape (http://www.inkscape.org/) -->

<svg
   version="1.1"
   id="svg2"
   width="289.33334"
   height="309.33334"
   viewBox="0 0 289.33334 309.33334"
   sodipodi:docname="luRossa.svg"
   inkscape:version="1.1.2 (b8e25be833, 2022-02-05)"
   xmlns:inkscape="http://www.inkscape.org/namespaces/inkscape"
   xmlns:sodipodi="http://sodipodi.sourceforge.net/DTD/sodipodi-0.dtd"
   xmlns="http://www.w3.org/2000/svg"
   xmlns:svg="http://www.w3.org/2000/svg">
  <defs
     id="defs6" />
  <sodipodi:namedview
     id="namedview4"
     pagecolor="#ffffff"
     bordercolor="#666666"
     borderopacity="1.0"
     inkscape:pageshadow="2"
     inkscape:pageopacity="0.0"
     inkscape:pagecheckerboard="0"
     showgrid="false"
     inkscape:zoom="1.8241526"
     inkscape:cx="103.88385"
     inkscape:cy="138.14634"
     inkscape:window-width="1920"
     inkscape:window-height="991"
     inkscape:window-x="-9"
     inkscape:window-y="-9"
     inkscape:window-maximized="1"
     inkscape:current-layer="g8" />
  <g
     inkscape:groupmode="layer"
     inkscape:label="Image"
     id="g8">
    <path
       style="fill:#000000;stroke-width:1.33333"
       d="m 148.82255,286.41687 c -2.89253,-2.45966 -4.9763,-9.85206 -5.59748,-19.85769 l -0.57334,-9.23467 -9.55623,-2.74232 c -21.32836,-6.12055 -36.305128,-22.04457 -43.574539,-46.33052 -5.780781,-19.3127 -2.778875,-37.73794 8.84632,-54.29732 6.023869,-8.58063 7.308129,-9.71131 18.614249,-16.38828 8.79117,-5.19174 14.53184,-7.76983 20.79294,-9.33791 8.59442,-2.15246 8.65325,-2.1895 9.32697,-5.87166 0.3729,-2.03805 -0.012,-4.96946 -0.85527,-6.51426 -3.85007,-7.05269 -41.40055,-53.960263 -44.102,-55.091653 -1.07132,-0.448674 -2.347588,-2.356949 -2.836182,-4.240591 -0.756565,-2.916852 -0.300694,-3.675582 3.073592,-5.115506 3.92633,-1.675503 4.0056,-1.625875 8.82711,5.527345 5.51552,8.182836 33.16887,39.946212 37.61898,43.210175 1.69651,1.24432 4.75482,1.73538 7.27886,1.16872 4.17447,-0.93717 4.54607,-1.569136 9.05904,-15.406189 2.58831,-7.935905 7.30096,-20.945305 10.47254,-28.909776 3.17158,-7.964467 5.70512,-15.723819 5.63008,-17.243002 -0.17431,-3.529087 6.65222,-7.578672 9.16856,-5.438906 3.48902,2.966895 3.40647,4.870004 -0.52165,12.026124 -5.30491,9.664332 -10.14716,24.341004 -14.43636,43.756054 l -3.50115,15.847945 5.73227,12.36358 c 11.50741,24.81965 16.40841,36.99933 16.38772,40.72582 -0.0142,2.56393 2.34037,8.23098 7.20256,17.33508 8.91257,16.68823 10.40519,25.22408 6.90414,39.48278 -3.03589,12.36416 -10.32228,22.89599 -21.7721,31.46962 -7.21255,5.40078 -8.85539,7.34006 -10.85442,12.81302 -3.25747,8.9183 -10.52183,18.20147 -18.34123,23.43835 -5.49349,3.67915 -6.8887,4.15267 -8.41398,2.85564 z m 8.45425,-4.91512 c -0.60118,-0.17659 -1.63326,0.33287 -2.2935,1.13216 -0.72965,0.88324 -0.30095,1.00918 1.09304,0.32107 1.26144,-0.62265 1.80165,-1.27659 1.20049,-1.45318 z m 4.17588,-7.42008 c 7.16894,-7.42399 13.93356,-21.27066 9.14424,-18.71755 -1.54713,0.82486 -6.62823,1.91961 -11.29123,2.43296 -4.663,0.51334 -8.71471,1.34886 -9.00383,1.85672 -0.73852,1.29726 0.12411,19.67546 0.99871,21.27758 1.01606,1.86126 3.09471,0.45877 10.15211,-6.84971 z m 12.15177,-13.86726 c 0.44242,-2.65086 0.37843,-2.66965 -0.68307,-0.20066 -0.64417,1.49832 -1.06267,2.92305 -0.93001,3.16607 0.52581,0.9632 1.14842,-0.18137 1.61308,-2.96541 z m -25.49987,5.69246 c 0.0676,-3.78963 -0.12805,-4.29874 -0.9029,-2.34963 -0.54404,1.36854 -1.24806,2.03321 -1.56448,1.47702 -0.88797,-1.56087 -1.03188,3.54163 -0.14695,5.21096 1.36656,2.57802 2.52527,0.65524 2.61433,-4.33835 z m 34.7758,-18.25939 c -1.28712,0.32056 -3.13035,1.32679 -4.09608,2.23605 -0.96572,0.90929 0.0874,0.64703 2.34021,-0.5828 2.25285,-1.22983 3.04299,-1.97379 1.75587,-1.65325 z m -10.56921,4.29177 c -0.98181,0.11457 -2.29841,0.8333 -2.92577,1.59718 -0.62736,0.76388 0.17595,0.67015 1.78513,-0.2083 1.60917,-0.87845 2.12246,-1.50345 1.14064,-1.38888 z m 16.72685,-10.40375 c -0.63748,-1.16776 -2.01096,-1.12182 -4.10255,0.13719 -2.22862,1.34147 -2.40808,1.70546 -0.6163,1.24982 2.03116,-0.51651 2.31799,-0.2645 1.45957,1.28234 -0.80281,1.44665 -0.41142,1.57235 1.57461,0.50565 1.57412,-0.84564 2.25546,-2.12941 1.68467,-3.175 z m -15.52434,5.56709 c -12.48655,2.02008 -23.83667,0.30241 -34.33968,-5.19681 -12.03145,-6.29948 -18.06458,-12.71276 -24.69271,-26.24856 -6.40245,-13.07494 -8.12798,-23.3398 -6.00874,-35.74493 3.16054,-18.50027 12.30595,-31.4632 28.59612,-40.53279 5.76672,-3.21061 12.20444,-6.23611 14.30609,-6.7233 6.65614,-1.54298 1.68207,-2.46923 -6.9377,-1.29193 -12.29284,1.67898 -28.26562,9.66644 -36.88398,18.44445 -11.64916,11.86496 -17.784322,29.05096 -16.37878,45.88073 0.29024,3.47526 2.341485,11.19418 4.558316,17.15315 7.517054,20.2062 19.756444,32.00754 38.939214,37.54553 16.0921,4.64575 31.95492,3.69514 44.08504,-2.64185 3.57904,-1.86984 2.87205,-1.95656 -5.24319,-0.64369 z m 6.84124,-4.02336 c -0.60118,-0.17659 -1.63326,0.33286 -2.2935,1.13217 -0.72965,0.88323 -0.30095,1.00916 1.09304,0.32106 1.26144,-0.62265 1.80165,-1.2766 1.20048,-1.45319 z m 16.12629,-11.5923 c 4.41011,-5.50602 9.01801,-20.43323 8.76396,-28.39069 -0.66258,-20.75438 -14.20657,-39.70423 -30.89889,-43.23163 -5.94111,-1.25547 -7.78295,-0.99981 -12.86135,1.7852 -21.08917,11.56546 -22.80213,41.47605 -3.14708,54.95321 8.01364,5.49484 14.44499,6.01092 22.4417,1.80081 7.09458,-3.73516 10.815,-9.64492 11.85726,-18.83499 1.36917,-12.07257 -7.32084,-23.44165 -19.20549,-25.12638 -5.0988,-0.72279 -8.17571,1.60151 -10.90861,8.24031 l -1.83204,4.45041 5.2083,-2.84321 c 11.12602,-6.0737 22.86083,3.30043 19.30124,15.41842 -1.87133,6.37058 -11.96199,11.78432 -19.2237,10.3137 -9.35513,-1.89459 -15.08044,-10.08274 -14.58077,-20.85294 0.62767,-13.52913 17.4486,-23.37128 29.63909,-17.34222 9.85209,4.87257 15.95983,14.65892 16.27716,26.08065 0.19602,7.05549 -1.04812,10.61722 -6.01218,17.21167 -4.78703,6.35931 -7.75705,8.11048 -17.17842,10.12859 -10.07908,2.159 -24.26172,-2.00706 -31.57195,-9.27408 -6.70524,-6.66558 -9.44156,-11.84708 -10.93323,-20.70316 -1.5688,-9.31395 -0.26662,-15.98864 4.66926,-23.93359 3.50654,-5.64421 5.28494,-7.18557 13.40535,-11.61851 8.29348,-4.52741 10.32273,-5.09939 17.77272,-5.00951 4.87884,0.0589 11.37772,1.45256 15.4774,3.31916 l 7.06713,3.21771 -0.69585,-4.55261 c -1.06502,-6.96786 -5.01674,-13.48126 -10.59789,-17.46793 -9.99859,-7.14211 -32.79449,-3.3393 -46.09619,7.68975 -19.8093,16.42479 -25.79759,43.63641 -14.696,66.78062 5.94674,12.39755 12.90949,19.40769 24.77463,24.94325 18.57054,8.66387 43.80411,5.30844 53.78444,-7.15201 z m -12.19711,-11.8196 c -0.60119,-0.17659 -1.63327,0.33286 -2.2935,1.13216 -0.72965,0.88323 -0.30096,1.00917 1.09305,0.32107 1.26143,-0.62266 1.80165,-1.2766 1.20048,-1.45319 z m -6.49041,2.02404 c -0.60118,-0.17658 -1.63326,0.33288 -2.2935,1.13217 -0.72965,0.88324 -0.30095,1.00917 1.09304,0.32107 1.26144,-0.62265 1.80165,-1.2766 1.20049,-1.45318 z m 17.07395,-17.13754 c 0.44242,-2.65085 0.37843,-2.66965 -0.68308,-0.20065 -0.64416,1.49832 -1.06267,2.92305 -0.93001,3.16607 0.52582,0.9632 1.14844,-0.18138 1.61309,-2.96542 z m -35.37509,16.27314 c -0.2688,-0.47988 -2.21383,-0.76026 -4.32283,-0.62277 -3.74954,0.24443 -3.76064,0.27574 -0.50064,1.4126 3.38347,1.17991 5.71216,0.7986 4.82347,-0.78983 z m 19.45076,-16.59887 c -1.27882,0.3179 -3.39118,1.45724 -4.69412,2.53187 -1.30295,1.07463 -0.25664,0.81453 2.32513,-0.57799 2.58177,-1.39253 3.64781,-2.27178 2.36899,-1.95388 z m 25.86658,-16.39982 c -0.88324,-0.72965 -1.00917,-0.30097 -0.32107,1.09304 0.62266,1.26144 1.2766,1.80165 1.4532,1.20048 0.17658,-0.60118 -0.33288,-1.63327 -1.13217,-2.2935 z m -20.90476,10.55744 c 0.44241,-2.65085 0.37842,-2.66965 -0.68307,-0.20064 -0.64418,1.49831 -1.06269,2.92304 -0.93002,3.16606 0.52581,0.96321 1.14843,-0.18137 1.61309,-2.96542 z m -2.90289,0.0656 c 0.35251,-1.65455 0.44831,-4.23023 0.21289,-5.72373 -0.32606,-2.06852 -0.71385,-1.58538 -1.62769,2.02786 -1.93966,7.66923 -9.11898,9.96225 -15.48248,4.94499 -0.93921,-0.74051 -0.43935,0.31971 1.11089,2.35618 1.55022,2.03642 3.69444,3.76063 4.76496,3.8316 3.61121,0.23936 10.35553,-4.31149 11.02143,-7.4369 z m -18.93815,2.0204 c -1.44334,-2.64397 -2.71035,-4.47539 -2.81557,-4.06984 -0.41003,1.58043 4.13568,11.16789 4.76822,10.05677 0.36939,-0.64885 -0.50931,-3.34296 -1.95265,-5.98693 z m -21.96776,-6.64658 c -1.14882,-9.87661 4.66801,-26.10056 10.49925,-29.28384 1.26859,-0.69253 1.79498,-1.40941 1.16972,-1.59307 -1.88609,-0.55405 -10.64772,8.22486 -13.47114,13.49771 -5.41267,10.10835 -2.21659,27.31908 6.68086,35.97615 2.68189,2.60942 2.60861,2.00444 -0.69031,-5.69944 -2.02987,-4.7403 -3.91464,-10.54417 -4.18838,-12.89751 z m 5.04233,9.80018 c -1.40873,-1.96128 -0.84176,-0.40318 1.25994,3.46243 2.10213,3.86537 3.25432,5.47026 2.56136,3.56593 -0.69297,-1.90433 -2.41255,-5.0671 -3.8213,-7.02836 z m 30.62524,-5.13101 c -0.60118,-0.17658 -1.63327,0.33288 -2.2935,1.13217 -0.72965,0.88324 -0.30096,1.00917 1.09305,0.32107 1.26143,-0.62265 1.80165,-1.27659 1.20048,-1.45319 z m 24.15621,-22.50194 c -1.24011,-1.63209 -0.8245,-0.33032 0.92361,2.89282 1.749,3.22266 2.76276,4.5585 2.25477,2.96745 -0.50799,-1.59105 -1.93825,-4.22818 -3.17847,-5.86022 z m -94.9087,57.20151 c -0.88325,-0.72964 -1.00918,-0.30095 -0.32108,1.09306 0.62265,1.26143 1.27659,1.80165 1.45318,1.20048 0.17659,-0.60119 -0.33286,-1.63328 -1.1321,-2.29354 z m 10.01311,-20.75179 c -1.73976,-2.60108 -0.7195,-0.25282 2.26722,5.21837 2.98672,5.47118 4.41016,7.59935 3.16319,4.72925 -1.24697,-2.8701 -3.69066,-7.34652 -5.43041,-9.94762 z m 76.78547,-28.97624 c -0.91832,-0.97669 -0.82672,-0.18523 0.20357,1.7588 1.03027,1.94404 1.78164,2.74314 1.66968,1.7758 -0.11196,-0.96734 -0.95493,-2.5579 -1.87334,-3.53455 z m -16.72587,10.53898 c -0.0129,-1.55126 -0.83449,-3.19007 -1.90488,-3.79942 -1.55617,-0.88592 -2.05704,-0.63187 -2.89121,1.46631 -1.27044,3.19575 0.82402,7.2416 3.1044,5.99674 0.94286,-0.51471 1.7041,-2.16338 1.69166,-3.66369 z m -6.47282,1.76419 c -0.34035,-0.62345 -1.2433,-0.3992 -2.00655,0.49837 -0.76324,0.89758 -1.27473,1.83892 -1.13664,2.09189 0.1381,0.25296 1.04105,0.0287 2.00655,-0.49836 0.96551,-0.52707 1.47699,-1.46843 1.13664,-2.0919 z m 8.2129,-6.33498 c -0.88324,-0.72965 -1.00918,-0.30096 -0.32107,1.09304 0.62265,1.26144 1.27659,1.80166 1.45318,1.20049 0.17659,-0.60119 -0.33287,-1.63328 -1.13217,-2.2935 z m -80.642353,30.25615 c -1.401593,-1.95021 -0.679645,-0.12269 1.604323,4.06117 2.28397,4.18385 3.43072,5.77947 2.54834,3.54582 -0.882375,-2.23364 -2.751075,-5.65679 -4.152663,-7.60699 z M 136.48321,204.5544 c -0.91832,-0.9767 -0.82672,-0.18524 0.20357,1.75879 1.03026,1.94404 1.78164,2.74314 1.66968,1.7758 -0.11196,-0.96734 -0.95493,-2.55791 -1.87325,-3.53459 z m 41.65329,-19.16357 c -0.13266,-0.24302 -1.55739,-0.66152 -3.16606,-0.93001 -2.65086,-0.44243 -2.66966,-0.37844 -0.20065,0.68307 2.59305,1.11484 3.89253,1.21015 3.36671,0.24694 z m -8.24839,1.67131 c 2.63685,0.14556 3.023,-0.11264 2.25966,-1.51095 -1.03035,-1.88744 -5.96253,-1.36968 -7.17081,0.75277 -0.43032,0.75589 -0.28819,2.26049 0.31584,3.34355 0.94514,1.69462 1.12032,1.63944 1.25661,-0.39588 0.13094,-1.95555 0.70904,-2.33466 3.3387,-2.18949 z m 24.69983,-17.95879 c -0.88323,-0.72964 -1.00916,-0.30096 -0.32106,1.09305 0.62264,1.26143 1.27659,1.80165 1.45319,1.20048 0.17658,-0.60119 -0.33288,-1.63327 -1.13217,-2.2935 z m -60.432,28.43266 c -0.88325,-0.72964 -1.00918,-0.30095 -0.32108,1.09306 0.62265,1.26142 1.2766,1.80165 1.45319,1.20047 0.17658,-0.60118 -0.33286,-1.63327 -1.13211,-2.29353 z M 157.46758,185.095 c 0.46227,-1.92333 0.57717,-3.35322 0.25534,-3.17753 -0.32184,0.17569 -0.96338,1.89307 -1.42564,3.8164 -0.46228,1.92332 -0.57717,3.35321 -0.25533,3.17751 0.32182,-0.17568 0.96337,-1.89306 1.42563,-3.81638 z m 23.21867,-11.72955 c -0.13267,-0.24302 -1.5574,-0.66153 -3.16607,-0.93002 -2.65085,-0.44242 -2.66965,-0.37843 -0.20064,0.68307 2.59305,1.11484 3.89252,1.21015 3.36671,0.24695 z m -18.84643,3.1615 c -2.07259,-1.1799 -3.534,0.3239 -1.77136,1.82277 0.89413,0.76032 1.94378,0.82366 2.33255,0.14076 0.38877,-0.68292 0.13624,-1.56649 -0.56119,-1.96353 z m -69.670162,33.20097 c -0.763889,-0.62735 -0.670152,0.17595 0.2083,1.78513 0.878447,1.60917 1.50344,2.12246 1.388878,1.14064 -0.114566,-0.98181 -0.833296,-2.29841 -1.597178,-2.92577 z m 51.908702,-29.85605 1.36096,-5.67993 -1.92707,5.51363 c -1.79631,5.13949 -2.0652,6.5397 -1.16106,6.04613 0.20141,-0.10995 0.97863,-2.75587 1.72717,-5.87983 z m 36.0915,-21.36578 c -0.12123,-0.22207 -1.95302,-0.76015 -4.07065,-1.19573 l -3.85024,-0.79195 3.66689,1.41614 c 3.44597,1.33082 4.76526,1.50808 4.254,0.57154 z m 6.65051,-14.8583 c -1.24012,-1.6321 -0.8245,-0.33033 0.92361,2.89281 1.749,3.22266 2.76276,4.55849 2.25477,2.96744 -0.50799,-1.59105 -1.93825,-4.22817 -3.17847,-5.8602 z m -26.43563,14.7901 c -0.52706,-0.9655 -1.48494,-1.46797 -2.12862,-1.11659 -0.64366,0.35138 -0.90281,1.12888 -0.57586,1.72779 0.32694,0.5989 -0.46592,1.96399 -1.76189,3.03354 -1.704,1.40628 -1.27927,1.41395 1.53417,0.0277 2.7326,-1.3465 3.60531,-2.43941 2.9322,-3.67242 z m -6.96815,0.45326 c -1.60053,0.51165 -3.97041,1.80536 -5.26638,2.87492 -1.29598,1.06954 0.0136,0.65092 2.91006,-0.93028 2.89651,-1.58121 3.95686,-2.45631 2.35632,-1.94464 z m -40.53964,14.08826 c 1.1086,-3.94714 1.7523,-7.03287 1.43047,-6.85717 -0.32183,0.17568 -1.49219,3.5489 -2.60078,7.49604 -1.10858,3.94713 -1.75229,7.03285 -1.43046,6.85716 0.32183,-0.17569 1.49218,-3.5489 2.60077,-7.49603 z m 59.93762,-55.50601 -5.94862,-11.1838 3.35082,-13.670106 c 1.84295,-7.518563 3.00252,-13.772421 2.57681,-13.897462 -0.42569,-0.125045 -2.2916,5.025688 -4.14647,11.446082 -3.74869,12.975706 -6.25004,15.471456 -15.77558,15.740246 l -5.2234,0.14739 4.31388,2.94892 c 4.5735,3.12639 10.17542,12.06936 9.93108,15.85409 -0.10601,1.64195 2.13674,3.06702 8.17604,5.19516 4.57716,1.61292 8.70289,3.50526 9.16826,4.2052 0.46539,0.69995 0.54909,-0.27412 0.18597,-2.16464 -0.36311,-1.8905 -3.33706,-8.46999 -6.60879,-14.62108 z m 8.45876,13.32635 c -0.88323,-0.72964 -1.00917,-0.30095 -0.32106,1.09305 0.62264,1.26143 1.27658,1.80166 1.45318,1.20048 0.17659,-0.60119 -0.33287,-1.63327 -1.13217,-2.2935 z m -8.41625,-18.33237 c -1.72819,-2.58219 -0.55183,0.0433 2.61416,5.83435 3.16593,5.79111 4.57996,7.90377 3.14217,4.69488 -1.43777,-3.20889 -4.02813,-7.94704 -5.75686,-10.52894 z m -5.99054,18.88653 c -0.35138,-0.64366 -1.16551,-0.88281 -1.80918,-0.53143 -0.64367,0.35138 -0.88281,1.16551 -0.53143,1.80917 0.35137,0.64367 1.1655,0.88282 1.80917,0.53144 0.64367,-0.35138 0.88281,-1.16551 0.53144,-1.80918 z m -35.38818,13.84345 c -0.60118,-0.17659 -1.63327,0.33286 -2.29353,1.13212 -0.72965,0.88323 -0.30096,1.00916 1.09304,0.32106 1.26144,-0.62265 1.80166,-1.27658 1.20049,-1.45318 z m 18.72493,-10.22195 c -0.60119,-0.17658 -1.63327,0.33287 -2.29353,1.13211 -0.72965,0.88324 -0.30096,1.00917 1.09305,0.32107 1.26143,-0.62265 1.80165,-1.27658 1.20048,-1.45318 z m -8.26914,2.84351 c -1.59105,0.50799 -4.22817,1.93826 -5.86026,3.17839 -1.6321,1.24012 -0.33033,0.8245 2.89282,-0.92362 3.22313,-1.74811 4.55849,-2.76276 2.96744,-2.25477 z m 13.97266,-17.66284 c -1.08535,-2.4616 -3.0233,-5.11053 -4.30655,-5.88651 -2.15952,-1.30582 -2.24128,-1.23486 -1.09826,0.95313 0.67923,1.30018 1.27253,4.34113 1.31845,6.75767 0.0669,3.51754 0.48562,4.41995 2.10002,4.5254 3.43797,0.22459 4.03853,-1.69522 1.98634,-6.34969 z m 0.34111,-4.65218 c -1.06954,-1.29599 -0.65092,0.0135 0.93028,2.91006 1.58121,2.89651 2.45631,3.95685 1.94464,2.35632 -0.51165,-1.60053 -1.80536,-3.97041 -2.87492,-5.26638 z m -19.34776,14.58116 c -0.60118,-0.1766 -1.63327,0.33285 -2.29354,1.1321 -0.72964,0.88324 -0.30095,1.00917 1.09305,0.32108 1.26144,-0.62265 1.80166,-1.2766 1.20048,-1.45319 z m -10.60766,4.07939 c -2.85016,1.23732 -7.5915,3.82184 -10.53613,5.7437 -2.94484,1.92148 -0.61289,0.90913 5.18209,-2.24972 5.79494,-3.1589 8.20435,-4.73101 5.35419,-3.49369 z m 21.61421,-21.32265 c -1.15999,-2.70872 -2.51793,-4.70175 -3.01772,-4.42891 -0.49977,0.27282 0.24131,2.60259 1.64683,5.17728 1.40552,2.57467 2.76348,4.56768 3.01771,4.4289 0.25424,-0.13879 -0.48684,-2.46856 -1.64682,-5.17727 z m 22.98314,-10.64769 c 0.44243,-2.650841 0.37844,-2.669638 -0.68307,-0.20063 -1.11484,2.59305 -1.21015,3.89252 -0.24694,3.36671 0.24302,-0.13267 0.66152,-1.5574 0.93001,-3.16608 z m -9.378,-0.82356 c -0.98182,0.11457 -2.29842,0.8333 -2.92576,1.59718 -0.62736,0.76388 0.17594,0.67014 1.78511,-0.2083 1.60918,-0.87845 2.12247,-1.50345 1.14065,-1.38888 z m 6.80162,-17.454393 c -0.47972,-0.878767 -1.02323,0.623977 -3.05222,8.438535 l -2.18284,8.407188 2.71074,-8.252121 c 1.49091,-4.538661 2.62685,-8.405785 2.52432,-8.593602 z m 5.13656,6.626642 c 0.6333,-2.434431 0.88812,-4.282491 0.56629,-4.106804 -0.32184,0.175691 -1.1033,2.311243 -1.7366,4.745679 -0.6333,2.434432 -0.88811,4.2825 -0.56628,4.106813 0.32183,-0.175691 1.10329,-2.311252 1.73659,-4.745688 z m -33.0638,7.41607 c -2.65176,-2.729843 -4.29054,-3.885976 -3.64176,-2.569166 1.50578,3.05614 9.02798,10.762927 8.70561,8.919227 -0.13337,-0.76269 -2.41211,-3.62022 -5.06385,-6.350061 z m -5.43009,-1.943776 c -0.91832,-0.976694 -0.82672,-0.185233 0.20358,1.758793 1.03026,1.944041 1.78163,2.743144 1.66968,1.775801 -0.11197,-0.967338 -0.95494,-2.5579 -1.87335,-3.534546 z m 4.37801,-3.083458 c -0.88324,-0.729648 -1.00917,-0.300954 -0.32107,1.093047 0.62265,1.261438 1.27658,1.801655 1.45319,1.200478 0.17659,-0.601177 -0.33287,-1.63326 -1.13217,-2.293502 z m 40.02453,-31.973146 c -0.7541,-0.96527 -1.09012,-3.275589 -0.74671,-5.134034 0.61944,-3.352162 0.61312,-3.349793 -0.79538,0.298301 -0.78088,2.022514 -1.01479,3.796259 -0.5198,3.94166 0.49499,0.145401 0.69924,1.291326 0.45391,2.546485 -0.24535,1.255164 -0.015,2.046766 0.51194,1.759125 0.52692,-0.287646 0.22193,2.442276 -0.67773,6.066479 l -1.63577,6.589475 2.39031,-7.15622 c 1.31467,-3.935931 1.77332,-7.946001 1.01923,-8.911271 z m -5.4904,8.089023 c 0.63331,-2.434437 0.88813,-4.282496 0.56629,-4.106805 -0.32183,0.175687 -1.1033,2.311243 -1.73659,4.745675 -0.63329,2.43444 -0.88812,4.282504 -0.56629,4.106813 0.32184,-0.175691 1.1033,-2.311243 1.73659,-4.745683 z m -43.91567,20.584604 c -0.91833,-0.976689 -0.82672,-0.185234 0.20356,1.758798 1.03026,1.944041 1.78165,2.743138 1.66969,1.775796 -0.11197,-0.967333 -0.95494,-2.557901 -1.87334,-3.534546 z m 3.31513,0.534905 c -0.88324,-0.729656 -1.00917,-0.300953 -0.32108,1.093038 0.62266,1.261447 1.27659,1.801664 1.4532,1.200478 0.17659,-0.601168 -0.33287,-1.633251 -1.13217,-2.293492 z m 2.34061,-1.277745 c -0.88324,-0.729656 -1.00917,-0.300949 -0.32107,1.093038 0.62266,1.261447 1.27659,1.801664 1.45319,1.200483 0.17659,-0.601173 -0.33286,-1.633256 -1.13217,-2.293492 z m -11.2965,-11.77723 c -0.56487,-2.188831 -0.746,-1.640084 -0.52901,1.602488 0.18151,2.712171 0.99779,6.02626 1.81394,7.364648 1.48072,2.428224 1.26219,0.903044 -1.28493,-8.967136 z m 59.09068,-26.874774 c -1.28581,-0.51116 -1.73506,-1.55207 -1.36318,-3.158469 0.469,-2.025859 0.36776,-1.980811 -0.65524,0.29157 -0.83468,1.854088 -0.61513,2.924078 0.70794,3.450041 1.28581,0.51116 1.73506,1.55207 1.36318,3.158469 -0.469,2.025861 -0.36777,1.980807 0.65522,-0.291605 0.83469,-1.854093 0.61513,-2.924078 -0.70794,-3.450041 z m -55.88464,29.396974 c -0.88324,-0.729651 -1.00916,-0.300954 -0.32107,1.093044 0.62265,1.261442 1.27659,1.801659 1.45319,1.200478 0.17659,-0.601173 -0.33287,-1.633257 -1.13217,-2.293498 z m -7.30103,-2.18558 c -0.76388,-0.627357 -0.67015,0.175953 0.2083,1.785126 0.87845,1.609173 1.50345,2.12246 1.38888,1.140645 -0.11457,-0.981817 -0.8333,-2.298413 -1.59718,-2.925771 z m 68.96426,-38.786929 c -0.35138,-0.643669 -1.42883,-0.739069 -2.39433,-0.212 -0.96551,0.527069 -1.46797,1.484946 -1.11659,2.128615 0.35138,0.64367 1.42883,0.73907 2.39433,0.212001 0.9655,-0.527069 1.46797,-1.484946 1.11659,-2.128616 z m -69.59877,31.710062 c -0.77065,-0.717002 -1.01155,0.103086 -0.56149,1.911493 0.55361,2.224516 0.95535,2.598299 1.34972,1.255761 0.30882,-1.051317 -0.0459,-2.476582 -0.78823,-3.167254 z m -3.45654,-1.62712 c 0.24739,-0.928763 9.4e-4,-2.503178 -0.54767,-3.498699 -0.54814,-0.995771 -0.96071,0.127881 -0.91578,2.496451 0.0449,2.368571 0.613,5.134565 1.26242,6.146649 0.8316,1.296007 0.9694,1.057135 0.46601,-0.8078 -0.39312,-1.45637 -0.51236,-3.407843 -0.26498,-4.336601 z m -4.36466,-5.21267 c 0.24739,-0.928762 9.3e-4,-2.503172 -0.54768,-3.498694 -0.54815,-0.995771 -0.96071,0.127881 -0.91579,2.496451 0.0449,2.368571 0.61302,5.134561 1.26243,6.146649 0.8316,1.296002 0.96941,1.05713 0.46602,-0.807805 -0.39313,-1.45637 -0.51236,-3.407843 -0.26498,-4.336601 z m -4.38357,-3.001797 c -0.36637,-1.472127 -0.98253,-2.120793 -1.36926,-1.44147 -0.38674,0.679323 -0.28888,1.994007 0.21745,2.921523 1.32231,2.422246 1.92896,1.642704 1.15181,-1.480053 z m -1.72381,-5.133146 c -0.35138,-0.643669 -1.16551,-0.882815 -1.80918,-0.531438 -0.64368,0.351383 -0.88282,1.165514 -0.53144,1.809183 0.35138,0.64367 1.16551,0.882816 1.80918,0.531434 0.64367,-0.351378 0.88282,-1.165509 0.53144,-1.809179 z"
       id="path863" />
    <path
       style="fill:#fde608;stroke-width:0.5482"
       d="m 178.86435,241.41555 c -13.23997,3.24435 -26.97719,1.57782 -39.11226,-4.7449 -9.18245,-4.78434 -14.50487,-10.20255 -19.92113,-20.27969 -4.7007,-8.74583 -6.5843,-15.42747 -6.93806,-24.61127 -0.26328,-6.83457 0.4535,-11.95165 2.63029,-18.77778 2.92517,-9.17295 7.73277,-16.88992 14.68643,-23.57407 4.84525,-4.65747 14.29155,-9.81322 21.41311,-11.68715 11.36928,-2.9917 22.6957,-1.87414 28.08039,2.77065 3.33172,2.87392 6.31395,6.76842 7.44293,9.71975 1.08498,2.8363 2.60829,9.901 2.18103,10.11502 -0.16451,0.083 -1.8277,-0.5899 -3.69545,-1.49429 -4.38748,-2.12448 -12.7204,-4.24057 -17.44783,-4.43076 -6.87777,-0.2767 -10.30195,0.65448 -18.20561,4.9509 -8.52425,4.6338 -10.98389,6.80003 -14.47446,12.74803 -6.04974,10.30892 -6.33922,21.87811 -0.8316,33.23629 3.09186,6.37624 6.14903,10.03009 11.73967,14.03096 4.69372,3.359 15.86075,6.84297 21.63585,6.75011 5.20251,-0.0837 11.8616,-1.74113 15.9264,-3.96416 3.81593,-2.08654 8.04007,-6.66505 10.79301,-11.69722 5.63628,-10.30273 2.59265,-25.53575 -6.83208,-34.19375 -3.26883,-3.00291 -8.70051,-6.01247 -11.44378,-6.3407 -8.46724,-1.01312 -17.53051,3.01255 -22.18763,9.85517 -4.32626,6.3565 -4.0861,17.01104 0.52722,23.39037 3.80161,5.25686 10.92502,8.18882 16.98713,6.99181 4.30321,-0.84969 10.20423,-4.45616 12.25674,-7.49082 2.62311,-3.87829 2.68443,-9.18042 0.1592,-13.76473 -1.82245,-3.30838 -4.41914,-5.38603 -7.87971,-6.30447 -3.40526,-0.90374 -6.28638,-0.48333 -10.89489,1.5898 l -3.93943,1.77215 0.69388,-1.77099 c 1.63011,-4.16048 3.82054,-7.38728 5.71774,-8.42296 3.95544,-2.15928 11.07991,-0.42419 16.41469,3.99763 2.07375,1.71886 3.12969,3.10889 5.11519,6.73353 2.17612,3.97168 2.53158,5.02849 2.72901,8.10232 0.88795,13.82483 -6.49298,23.91015 -19.04467,26.02265 -5.61483,0.945 -14.1537,-2.85132 -19.81384,-8.80909 -2.78564,-2.93214 -6.42025,-9.61979 -7.43497,-13.68036 -1.27391,-5.0977 -1.1035,-11.4762 0.45081,-16.874 2.50725,-8.70709 7.15235,-14.60571 14.93936,-18.97087 5.94885,-3.33475 7.64401,-3.49163 14.92569,-1.38141 4.03696,1.1699 6.25715,2.23306 9.47955,4.53939 5.95608,4.26286 8.87456,7.64616 12.81971,14.86149 4.06616,7.43603 5.78334,13.42008 6.12151,21.32857 0.39424,9.21978 -3.12657,21.74225 -8.13438,28.93153 -2.38313,3.42126 -2.89961,3.87161 -7.61667,6.64129 -4.17754,2.45289 -5.92499,3.18307 -10.01806,4.18604 z"
       id="path1000" />
    <path
       style="fill:#fde608;stroke-width:0.5482"
       d="m 171.10886,250.53356 c -10.71599,3.15179 -22.72028,3.10312 -34.91632,-0.14156 -22.88799,-6.08921 -36.625747,-21.37375 -43.401512,-48.28825 -5.094318,-20.2355 3.929874,-44.58155 21.296422,-57.45487 7.45066,-5.52295 18.59897,-10.58729 27.093,-12.30753 4.94619,-1.00171 11.04649,-1.47752 11.99804,-0.93581 0.5396,0.30718 0.43911,0.44888 -0.39321,0.55441 -2.75189,0.34895 -14.7287,6.22696 -20.17349,9.90081 -11.5372,7.78469 -18.16294,16.40415 -22.02566,28.65333 -5.70777,18.10005 -4.21575,30.60886 5.84475,49.00104 5.19844,9.5035 7.92475,12.81701 14.44871,17.5604 13.25884,9.64012 27.28942,12.86181 44.11954,10.13069 2.44556,-0.39685 4.49025,-0.64137 4.54375,-0.54336 0.22767,0.41705 -5.2697,2.93997 -8.43402,3.8707 z"
       id="path1039" />
    <path
       style="fill:#deaa87;stroke-width:0.5482"
       d="m 145.87238,212.81146 c -8.76631,-7.04299 -12.55616,-25.64078 -7.3146,-35.89452 1.39926,-2.73729 5.55284,-7.93847 7.74465,-9.69796 1.20455,-0.96696 1.09765,-0.59123 -0.68903,2.41736 -2.61119,4.39765 -5.78445,14.99018 -5.93626,19.81553 -0.14189,4.51052 0.76126,8.17334 4.18275,16.96344 1.48874,3.82469 2.39435,6.70296 2.01249,6.39615 z"
       id="path1078" />
    <path
       style="fill:#deaa87;stroke-width:0.5482"
       d="m 176.80199,132.42076 c -1.31347,-0.59492 -4.43244,-1.85988 -6.93104,-2.811 -5.91204,-2.2505 -7.62833,-3.39793 -7.64253,-5.10942 -0.0316,-3.81406 -6.05799,-12.91734 -10.71242,-16.18191 -1.10666,-0.77619 -1.98046,-1.51902 -1.94178,-1.65072 0.0387,-0.13175 1.94837,-0.35128 4.24375,-0.48796 3.24911,-0.19347 4.81349,-0.59632 7.06349,-1.81895 3.72346,-2.02352 4.67292,-3.68445 7.92844,-13.872419 1.37674,-4.308388 2.68937,-7.778739 2.91696,-7.711883 0.40066,0.117688 -0.4464,4.101433 -3.64671,17.150531 l -1.52977,6.237541 3.03739,5.5807 c 3.8415,7.05848 9.62529,19.58556 9.61231,20.81931 -0.008,0.74608 -0.49806,0.71667 -2.39798,-0.14388 z"
       id="path1191" />
    <path
       style="fill:#deaa87;stroke-width:0.5482"
       d="m 154.50319,126.14177 c -1.7519,0.0907 -2.23834,-0.85757 -2.48449,-4.84334 -0.10977,-1.7776 -0.51854,-4.14704 -0.90836,-5.2654 -0.69844,-2.00374 -0.69043,-2.02176 0.5487,-1.23638 1.5969,1.01212 4.94147,7.04472 4.9964,9.01191 0.0502,1.79702 -0.35878,2.24034 -2.15221,2.33319 z"
       id="path1230" />
    <path
       style="fill:#deaa87;stroke-width:0.5482"
       d="m 151.99681,281.36125 c -0.71,-0.4042 -1.54337,-9.04582 -1.57974,-16.38133 -0.029,-5.84764 -0.40075,-5.54126 8.18444,-6.74509 3.26452,-0.45775 7.26727,-1.20199 8.89498,-1.65387 1.62771,-0.45187 3.33828,-0.89996 3.80126,-0.99571 1.50146,-0.31058 -1.23267,6.15323 -4.83626,11.43348 -4.84798,7.10362 -12.9933,15.18016 -14.46468,14.34252 z"
       id="path1269" />
    <path
       style="fill:#ff5555;stroke-width:0.5482"
       d="m 143.08014,251.57566 c -24.80349,-4.36583 -39.97296,-18.0018 -48.133045,-43.26723 -2.770062,-8.57673 -3.327121,-12.43998 -2.958543,-20.51776 0.681661,-14.93932 7.274758,-29.32061 17.966848,-39.19044 9.85621,-9.09823 25.38482,-15.89486 38.88084,-17.01752 l 4.11149,-0.34202 -5.48199,2.39217 c -12.69088,5.53789 -22.73717,12.63963 -28.53009,20.16797 -9.94471,12.92389 -14.27815,33.43873 -10.19588,48.26808 2.29451,8.33511 8.9026,21.47107 14.09156,28.01204 5.87008,7.39957 18.59143,14.6825 30.1164,17.24155 4.53005,1.00586 16.38966,1.15195 21.62177,0.26633 1.94215,-0.32874 3.62404,-0.50485 3.73753,-0.39136 0.50856,0.50855 -9.01198,3.66331 -13.32514,4.41547 -5.84244,1.01884 -15.99992,1.00154 -21.90175,-0.0373 z"
       id="path1598" />
    <path
       style="fill:#ff0000;stroke-width:0.5482"
       d="m 154.31823,241.54798 c -17.18274,-3.77531 -28.54864,-12.97509 -36.19874,-29.29998 -3.78221,-8.07103 -4.54979,-11.86078 -4.57153,-22.57088 -0.0175,-8.63791 0.091,-9.67619 1.48427,-14.19859 5.17301,-16.79091 14.52424,-27.88857 29.22184,-34.67928 10.52994,-4.86514 23.35425,-5.80664 31.47983,-2.31111 3.38175,1.45479 8.89143,7.15605 10.63328,11.00302 1.31958,2.91438 2.92899,9.50225 2.44068,9.99056 -0.14303,0.14303 -2.34951,-0.57432 -4.9033,-1.5941 -6.63053,-2.64774 -12.67246,-3.74228 -19.0916,-3.45859 -5.99541,0.26496 -8.9494,1.26476 -16.88648,5.71538 -11.34382,6.36091 -17.18084,16.2669 -17.18084,29.1576 0,6.43509 1.00121,10.45938 4.25312,17.0952 5.76374,11.76145 17.26763,18.8766 31.65397,19.578 13.29778,0.64832 23.04814,-4.8626 28.64715,-16.19142 1.82098,-3.68451 2.04029,-4.60712 2.23247,-9.39186 0.25208,-6.27608 -0.43721,-10.06232 -2.70561,-14.86194 -2.48335,-5.25441 -5.62459,-8.97215 -10.12313,-11.98095 -5.33225,-3.56643 -7.09322,-4.08667 -12.65795,-3.73949 -8.38791,0.5233 -16.02603,5.41992 -19.27873,12.35915 -1.29566,2.76413 -1.4638,3.78537 -1.4638,8.89109 0,5.40753 0.11213,5.996 1.79292,9.40955 4.41912,8.97491 14.31329,12.5342 23.17614,8.3373 7.02274,-3.32554 9.85016,-7.04779 9.82959,-12.94043 -0.0378,-10.81365 -9.25913,-16.58588 -19.69657,-12.32933 -1.9452,0.79328 -3.6661,1.31295 -3.82423,1.15482 -0.49598,-0.49598 2.67772,-6.02508 4.4104,-7.68363 1.48875,-1.42505 2.02419,-1.58404 5.33148,-1.58311 7.09024,0.002 13.37988,4.4414 17.28836,12.20261 6.62192,13.14938 -1.14236,29.43429 -15.50188,32.51385 -7.73231,1.65829 -18.82448,-4.62523 -24.16319,-13.68801 -3.26431,-5.54138 -4.39911,-9.55201 -4.39911,-15.54743 0,-7.90038 2.16725,-14.63705 6.59597,-20.50285 3.68882,-4.8858 12.8261,-10.586 16.98764,-10.59754 2.4637,-0.007 9.29584,1.87909 12.22982,3.3759 10.35123,5.2808 19.11256,17.53364 22.03548,30.81691 1.35291,6.1483 0.89714,15.812 -1.06308,22.54051 -1.7487,6.0025 -5.06934,12.93853 -7.61108,15.89779 -2.40303,2.79775 -9.88337,6.99107 -15.18637,8.51315 -5.97712,1.71557 -18.75223,2.01858 -25.21719,0.59813 z"
       id="path1637" />
    <path
       style="fill:#ff0000;stroke-width:0.5482"
       d="m 154.04413,241.22693 c -6.91445,-1.59594 -13.26292,-4.33359 -18.91289,-8.1558 -8.23229,-5.56915 -16.11981,-17.10286 -19.86846,-29.0531 -1.09469,-3.48973 -1.2316,-5.08046 -1.23425,-14.34091 -0.003,-11.36412 0.23259,-12.5829 4.24322,-21.92799 6.08369,-14.17548 18.56966,-25.1146 33.57958,-29.41952 5.91201,-1.69559 17.6103,-1.82873 22.13823,-0.25195 3.63407,1.26549 9.65647,6.94298 11.70294,11.03268 1.23796,2.47395 3.36747,9.57108 2.98621,9.95233 -0.085,0.085 -3.10204,-0.88093 -6.70463,-2.14644 l -6.55016,-2.30091 -8.22299,-0.0115 c -7.65735,-0.0107 -8.45792,0.0875 -11.63814,1.42784 -13.41079,5.65209 -21.249,13.59527 -23.983,24.30418 -1.09314,4.28179 -1.0915,13.87899 0.003,18.08144 1.6156,6.20269 5.07195,12.27237 9.56338,16.79419 7.02744,7.07498 14.53602,10.31756 24.95825,10.7782 7.10904,0.31421 11.27412,-0.35412 16.00573,-2.56831 4.60935,-2.15698 7.47495,-4.54422 10.45136,-8.70669 4.09895,-5.73234 5.0362,-8.66344 5.05139,-15.79747 0.01,-4.55275 -0.26129,-6.99726 -1.06348,-9.5935 -2.34666,-7.59483 -8.08343,-14.4522 -15.04774,-17.98709 -3.49225,-1.77257 -3.71181,-1.81052 -9.00164,-1.5558 -4.58637,0.22085 -5.9807,0.5225 -9.04638,1.9571 -4.41132,2.06431 -8.40862,5.6942 -10.5342,9.56595 -1.40855,2.56568 -1.61001,3.53941 -1.78908,8.64735 -0.24801,7.07444 0.85124,10.56251 4.66578,14.8052 6.43323,7.1553 15.64412,7.93089 24.35051,2.05042 4.56231,-3.08148 5.96907,-5.68862 5.96169,-11.0487 -0.01,-7.12989 -3.54625,-11.96654 -9.85648,-13.48034 -2.99873,-0.71938 -5.75936,-0.41471 -10.25402,1.13168 -3.4368,1.18244 -3.5819,0.83457 -1.2001,-2.87714 2.4244,-3.77814 3.96185,-4.83432 7.03717,-4.83432 6.00968,0 11.335,2.98646 15.36794,8.61839 8.36153,11.67675 4.2859,27.66465 -8.65861,33.96598 -2.55546,1.24399 -3.87006,1.52145 -7.26039,1.53237 -3.72194,0.012 -4.57987,-0.20341 -8.4971,-2.13343 -8.7857,-4.32872 -15.65141,-13.68827 -16.60444,-22.63567 -1.57531,-14.78966 4.77663,-26.90504 17.35166,-33.09571 3.23468,-1.59243 3.87068,-1.71938 7.17144,-1.43154 12.29531,1.07223 23.39003,10.52784 29.74487,25.35042 2.71974,6.34378 3.37172,10.35465 3.08886,19.00226 -0.22827,6.97904 -0.44673,8.39191 -2.00915,12.99467 -2.43469,7.17242 -5.78476,13.39601 -8.42942,15.65973 -2.67182,2.28698 -9.47396,5.86958 -13.5653,7.14467 -4.12342,1.28508 -20.76142,1.64849 -25.49129,0.55677 z"
       id="path1713" />
    <path
       style="fill:#ff0000;stroke-width:0.5482"
       d="m 143.08014,251.3376 c -5.47874,-0.97934 -12.7284,-3.36249 -18.09059,-5.94684 -14.17466,-6.83156 -23.9454,-19.09328 -29.761495,-37.34895 -2.633466,-8.26598 -3.038765,-11.23889 -2.71171,-19.89072 0.35216,-9.31593 1.722654,-14.74058 5.846875,-23.14296 5.85844,-11.93554 14.93397,-20.66087 27.71139,-26.64207 7.55835,-3.53812 18.12324,-6.54519 22.87556,-6.51105 1.54621,0.0111 1.12212,0.31913 -2.96031,2.15012 -9.60409,4.30747 -18.59707,10.32133 -24.28951,16.24307 -13.2066,13.73859 -18.31384,38.95377 -11.53678,56.95877 1.93296,5.1354 6.87211,14.83195 9.8827,19.40173 5.99976,9.10707 17.80867,16.93652 30.83883,20.44654 3.54904,0.95603 5.91345,1.15249 14.24367,1.18351 5.49353,0.0204 9.91238,0.11304 9.81967,0.20575 -0.0927,0.0927 -2.24386,0.81883 -4.78034,1.61359 -4.14224,1.2979 -5.61639,1.46154 -14.47937,1.60725 -5.42718,0.0892 -11.10104,-0.0583 -12.60859,-0.32774 z"
       id="path1752" />
  </g>
</svg>
