<?xml version="1.0" encoding="UTF-8" standalone="no"?>
<!-- Created with Inkscape (http://www.inkscape.org/) -->

<svg
   version="1.1"
   id="svg2"
   width="82.879997"
   height="62.080002"
   viewBox="0 0 82.879997 62.080002"
   sodipodi:docname="sprint.svg"
   inkscape:version="1.1.2 (b8e25be833, 2022-02-05)"
   xmlns:inkscape="http://www.inkscape.org/namespaces/inkscape"
   xmlns:sodipodi="http://sodipodi.sourceforge.net/DTD/sodipodi-0.dtd"
   xmlns="http://www.w3.org/2000/svg"
   xmlns:svg="http://www.w3.org/2000/svg">
  <defs
     id="defs6" />
  <sodipodi:namedview
     id="namedview4"
     pagecolor="#ffffff"
     bordercolor="#666666"
     borderopacity="1.0"
     inkscape:pageshadow="2"
     inkscape:pageopacity="0.0"
     inkscape:pagecheckerboard="0"
     showgrid="false"
     inkscape:zoom="9.08942"
     inkscape:cx="40.431623"
     inkscape:cy="27.22946"
     inkscape:window-width="1920"
     inkscape:window-height="991"
     inkscape:window-x="-9"
     inkscape:window-y="-9"
     inkscape:window-maximized="1"
     inkscape:current-layer="g8" />
  <g
     inkscape:groupmode="layer"
     inkscape:label="Image"
     id="g8">
    <g
       id="g455"
       transform="translate(1.540252,-1.6502705)">
      <path
         style="fill:#fae4d4;stroke-width:0.32"
         d="m 39.619999,49.701406 c 0.230998,-0.09244 0.506998,-0.08107 0.613334,0.02525 0.106333,0.106333 -0.08267,0.181965 -0.42,0.168071 -0.372784,-0.01536 -0.448608,-0.09118 -0.193334,-0.193331 z M 20.973063,45.418865 c 0.09209,-0.149001 0.367777,-0.194032 0.612643,-0.10007 0.249838,0.09587 0.603451,-0.124832 0.805807,-0.502938 0.198328,-0.370579 0.493305,-0.591763 0.655503,-0.49152 0.162198,0.100244 0.634468,-0.04023 1.049489,-0.31216 0.896154,-0.58718 1.183494,-0.383216 1.183494,0.8401 v 0.905606 l -2.237184,-0.03405 c -1.230452,-0.01872 -2.16184,-0.155962 -2.069752,-0.304964 z m 17.639144,0.101136 c -0.08006,-0.132 -0.196557,-0.888 -0.258887,-1.68 -0.06233,-0.792 -0.249811,-1.538105 -0.416633,-1.658012 -0.16682,-0.119908 0.12118,-0.310685 0.64,-0.423952 0.518822,-0.113264 1.807312,-0.519159 2.863312,-0.901984 1.055999,-0.382829 2.238217,-0.688263 2.627155,-0.678743 0.505094,0.01235 0.618259,-0.0898 0.396051,-0.357542 -0.341591,-0.411591 0.392137,-1.257757 0.766237,-0.883658 0.115804,0.115808 0.210556,0.04834 0.210556,-0.14993 0,-0.198268 0.612,-0.52663 1.36,-0.729696 3.058362,-0.830272 4.168023,-1.270547 5.54576,-2.200371 0.795478,-0.536861 1.727104,-0.976112 2.070282,-0.976112 0.343177,0 0.623958,-0.144 0.623958,-0.32 0,-0.176 0.135987,-0.32 0.302192,-0.32 0.166205,0 0.850205,-0.503312 1.52,-1.11847 0.669795,-0.615159 1.361808,-1.123613 1.537808,-1.129896 0.176,-0.0063 0.80383,-0.653685 1.395181,-1.438671 0.59135,-0.784987 1.20335,-1.348036 1.36,-1.25122 0.156649,0.09681 0.284819,-0.04847 0.284819,-0.322858 0,-0.274387 0.293251,-0.792138 0.65167,-1.150557 0.368176,-0.368173 0.550269,-0.820607 0.418576,-1.04 -0.128205,-0.213581 0.03819,-0.172328 0.369754,0.09167 0.351353,0.279751 0.502598,0.313126 0.362541,0.08 -0.151226,-0.251714 -0.05537,-0.4 0.258572,-0.4 0.274387,0 0.462887,-0.176582 0.418887,-0.392403 -0.044,-0.215821 0.28,-0.442008 0.72,-0.502637 0.44,-0.06063 0.966499,-0.325105 1.169996,-0.587726 0.269719,-0.348079 0.681677,-0.41902 1.52,-0.26175 0.632503,0.118658 1.150004,0.343716 1.150004,0.500129 0,0.156413 0.236409,0.284387 0.525356,0.284387 0.500109,0 2.319402,1.644483 2.386384,2.157087 0.258669,1.979529 0.223149,2.069891 -0.738102,1.87764 -0.8408,-0.168159 -0.882819,-0.138195 -0.434666,0.309961 0.272864,0.272864 0.663472,0.392687 0.868016,0.266272 0.536663,-0.331676 0.09859,0.330789 -1.757622,2.657936 -0.872528,1.093894 -1.73305,1.898272 -1.912272,1.787507 -0.195606,-0.120892 -0.2456,0.0077 -0.125072,0.321844 0.110432,0.287776 -0.0091,0.733113 -0.265619,0.989635 -0.256522,0.256521 -0.466403,0.677462 -0.466403,0.935421 0,0.257958 -0.413053,0.91119 -0.917898,1.451625 -0.504842,0.540435 -0.85655,1.043955 -0.781574,1.118931 0.187776,0.187776 -1.672058,1.486141 -2.128813,1.486141 -0.203216,0 -0.292384,0.124756 -0.198147,0.277232 0.09424,0.15248 -0.127002,0.547229 -0.491639,0.877223 -0.651248,0.589369 -0.674182,0.58615 -1.29615,-0.181949 -0.738746,-0.91231 -1.041725,-1.006646 -3.683456,-1.14689 -1.430582,-0.07595 -2.083213,0.02218 -2.359181,0.354698 -0.20983,0.252829 -0.570169,0.459686 -0.800761,0.459686 -0.230589,0 -0.506439,0.274698 -0.612999,0.610439 -0.10656,0.335741 -0.404262,0.691222 -0.661564,0.789955 -0.290227,0.111373 -0.467818,0.615674 -0.467818,1.328448 0,0.684467 -0.129363,1.068979 -0.32,0.951158 -0.176,-0.108774 -0.32,-0.04527 -0.32,0.141114 0,0.393248 -12.670387,0.490314 -12.907791,0.09889 z M 68.171252,27.666439 c 0.665894,-0.802354 -0.106643,-1.292492 -0.928304,-0.588965 -0.492704,0.421867 -0.565594,0.639073 -0.276166,0.822935 0.562118,0.357088 0.743116,0.321929 1.20447,-0.23397 z M 49.279998,16.941115 c 0,-0.186387 0.144,-0.249889 0.32,-0.141114 0.176,0.108774 0.32,0.261272 0.32,0.338885 0,0.07761 -0.144,0.141115 -0.32,0.141115 -0.176,0 -0.32,-0.152499 -0.32,-0.338886 z"
         id="path469" />
      <path
         style="fill:#9dd7d8;stroke-width:0.32"
         d="m 43.29571,51.921512 c 1.548644,-0.05879 3.996643,-0.05849 5.44,6.4e-4 1.44336,0.05915 0.176288,0.107251 -2.815712,0.106883 -2.992,-3.2e-4 -4.172928,-0.04877 -2.624288,-0.107552 z M 27.199999,49.866667 c 0,-0.146665 0.135501,-0.266665 0.301115,-0.266665 0.165613,0 0.375278,0.12 0.465923,0.266665 0.09064,0.146669 -0.04486,0.266669 -0.301114,0.266669 -0.256258,0 -0.465924,-0.12 -0.465924,-0.266669 z m 33.279999,0.252515 c 0,-0.06645 0.252,-0.318448 0.56,-0.56 0.507539,-0.398038 0.518857,-0.38672 0.120819,0.12082 -0.418038,0.53304 -0.680819,0.702553 -0.680819,0.43918 z M 36.159999,49.495176 c 0.264,-0.222461 0.668531,-0.613882 0.89896,-0.869824 0.356726,-0.396227 0.383958,-0.370285 0.18334,0.17465 -0.253875,0.689587 -0.730339,1.113366 -1.2423,1.104921 -0.176,-0.0029 -0.104,-0.187289 0.16,-0.409747 z m 15.599999,0.198992 c 0.396,-0.07627 0.72,-0.272662 0.72,-0.436422 0,-0.476874 0.554064,-0.343248 0.755722,0.182256 0.14496,0.377763 -0.06926,0.470716 -1.005763,0.436422 -0.743578,-0.02723 -0.919869,-0.0956 -0.469959,-0.182256 z M 26.420573,48.733803 c -0.173659,-0.456064 -0.136903,-0.492819 0.179134,-0.179136 0.218694,0.217069 0.317015,0.475277 0.218491,0.573802 -0.09852,0.09852 -0.277455,-0.07908 -0.397625,-0.394666 z m 35.334634,-0.245801 c 0.261364,-0.316151 0.569517,-1.311284 0.684784,-2.211409 l 0.209575,-1.636592 -0.01776,1.796116 c -0.01446,1.462781 -0.141559,1.873187 -0.684784,2.211408 -0.620663,0.386435 -0.633991,0.37535 -0.191805,-0.159523 z m -10.555209,-0.28882 c 0,-0.06645 0.219296,-0.302816 0.487325,-0.52526 0.407472,-0.33817 0.454298,-0.318375 0.285763,0.120819 -0.172125,0.448553 -0.773088,0.76295 -0.773088,0.404441 z M 25.625262,47.493336 c 0.01535,-0.372784 0.09118,-0.448608 0.193334,-0.193334 0.09244,0.230998 0.08107,0.506998 -0.02526,0.613334 -0.106334,0.106333 -0.181966,-0.08267 -0.168071,-0.42 z M 13.44,46.771797 c 0,-0.147514 0.827999,-0.414608 1.839999,-0.593543 l 1.84,-0.325334 -2.88,-0.0086 C 12.304948,45.83852 11.674983,45.91587 12.32,46.08 c 0.871088,0.221654 0.885907,0.245702 0.16,0.259648 -0.996428,0.01914 -2.140332,-0.407536 -1.73876,-0.648563 0.307999,-0.184864 4.934842,-0.390576 6.778759,-0.301389 1.585965,0.07671 1.239481,0.602813 -0.56,0.850304 -0.88,0.12103 -1.6,0.350544 -1.6,0.510029 0,0.159494 -0.432,0.289981 -0.96,0.289981 -0.528,0 -0.959999,-0.120692 -0.959999,-0.268205 z m 43.399998,-0.307076 c -0.08677,-0.140403 -0.0097,-0.464403 0.171302,-0.72 0.27201,-0.384137 0.29921,-0.371203 0.156861,0.0746 -0.09472,0.296631 -3.01e-4,0.609261 0.209815,0.694736 0.294518,0.119815 0.294726,0.1612 9.6e-4,0.180676 -0.209613,0.01389 -0.452112,-0.08961 -0.538887,-0.230017 z M 23.065167,46.10235 c -2.633383,-0.202201 -3.253786,-0.732112 -1.647744,-1.407401 0.546279,-0.229693 0.894836,-0.516023 0.774572,-0.636285 -0.120265,-0.120266 -0.05066,-0.218663 0.154671,-0.218663 0.716607,0 0.365356,0.627924 -0.666667,1.191783 l -1.04,0.568217 2.24,0.0963 c 1.232,0.05296 2.3768,0.23296 2.544,0.4 0.1672,0.167037 0.2392,0.27776 0.16,0.246051 -0.0792,-0.03171 -1.212674,-0.139709 -2.518832,-0.24 z m 9.097097,-1.298685 c -0.112108,-0.181395 0.01635,-0.23504 0.301114,-0.125763 0.554374,0.212733 0.655805,0.442099 0.195507,0.442099 -0.165613,0 -0.389094,-0.142352 -0.496621,-0.316336 z m -1.437365,-0.524483 c -0.0098,-0.717837 0.869158,-1.147693 1.574645,-0.770128 0.910576,0.487325 0.826541,0.693581 -0.206278,0.506295 -0.49558,-0.08987 -0.973088,0.01024 -1.115099,0.233744 -0.167127,0.26304 -0.249971,0.272886 -0.253268,0.03008 z m -7.280982,-0.340518 c 0.310155,-0.08091 0.503973,-0.244202 0.430707,-0.36288 -0.07327,-0.118682 0.246169,-0.238615 0.709856,-0.266525 l 0.843066,-0.05074 -0.793773,0.439401 c -0.436576,0.241671 -1.009774,0.427799 -1.273774,0.41362 -0.331164,-0.01779 -0.305143,-0.07139 0.08392,-0.172877 z M 61.88066,43.371909 c -0.330045,-0.704637 -0.19839,-0.919597 1.615139,-2.637101 1.109367,-1.050624 2.642141,-2.988269 3.498317,-4.422365 1.77439,-2.972119 3.939216,-5.632216 3.939216,-4.840437 0,0.290397 -0.06949,0.458503 -0.154429,0.373568 -0.08493,-0.08493 -0.782506,0.654414 -1.55016,1.643003 -1.040489,1.339943 -1.30911,1.901805 -1.055392,2.207514 0.252541,0.304294 0.188749,0.458201 -0.247267,0.596589 -0.534621,0.16968 -1.757053,1.827369 -1.681389,2.280057 0.01734,0.103722 -0.55119,0.699363 -1.263392,1.323651 -0.712201,0.624289 -1.202102,1.285242 -1.088665,1.468785 0.113433,0.183542 0.06093,0.243904 -0.116682,0.134134 -0.17761,-0.10977 -0.642688,0.14079 -1.03351,0.556797 -0.523187,0.556909 -0.606803,0.820515 -0.317072,0.999581 0.252397,0.15599 0.311629,0.11072 0.165181,-0.12624 -0.125581,-0.203194 -0.08478,-0.369444 0.09067,-0.369444 0.17545,0 0.298058,0.278023 0.272461,0.617831 -0.0256,0.339808 -0.148349,0.554912 -0.272784,0.478006 -0.124432,-0.0769 -0.274537,3.2e-4 -0.333571,0.171709 -0.05903,0.171344 -0.269034,-0.03369 -0.466669,-0.455638 z M 25.325008,41.494235 c -0.303695,-0.36593 -0.250681,-0.489488 0.268247,-0.62519 0.692233,-0.181021 0.794877,0.0019 0.373597,0.666102 -0.21277,0.335418 -0.336038,0.327562 -0.641844,-0.04091 z m -9.092146,-0.445187 c 0.568074,-0.07069 1.576074,-0.07185 2.24,-0.0026 0.663925,0.06927 0.199137,0.12711 -1.032863,0.128531 -1.232,0.0013 -1.775211,-0.05526 -1.207137,-0.125949 z M 11.52,40.661557 c -1.512258,-0.443565 1.807651,-0.794404 6.559999,-0.693242 4.529166,0.09641 5.585262,0.263254 4.45876,0.704397 -0.878075,0.343856 -1.744798,0.313657 -0.93876,-0.03271 0.391621,-0.168284 -1.284941,-0.269052 -4.32,-0.259648 -2.938053,0.0091 -4.568655,0.114951 -3.999999,0.259648 l 0.959999,0.244279 -0.959999,0.006 c -0.528,0.0033 -1.32,-0.09963 -1.76,-0.228688 z m 14.079999,-0.947319 c 0,-0.157171 0.236368,-0.376467 0.525262,-0.487325 0.439191,-0.168534 0.458989,-0.121709 0.120818,0.285763 -0.460841,0.555277 -0.64608,0.613069 -0.64608,0.201562 z m 1.417143,-0.354237 c 0,-0.414477 0.10819,-0.522665 0.315429,-0.315427 0.207238,0.207235 0.207238,0.423619 0,0.630854 -0.207239,0.207239 -0.315429,0.09905 -0.315429,-0.315427 z m -2.510599,-2.837053 c -0.137847,-0.22304 -0.164211,-0.491945 -0.05859,-0.597571 0.286387,-0.286387 0.598645,0.134816 0.443963,0.598864 -0.108392,0.325175 -0.183765,0.324922 -0.385376,-0.0013 z m 29.379173,-2.113686 c 0.038,-0.258906 0.192346,-0.582906 0.342989,-0.72 0.150647,-0.137095 0.170317,-0.06926 0.04371,0.150739 -0.126605,0.22 -0.157923,0.4 -0.0696,0.4 0.388704,0 2.437178,-1.371382 2.437178,-1.63161 0,-0.158614 0.216,-0.28839 0.48,-0.28839 0.264,0 0.444,-0.18 0.4,-0.4 -0.044,-0.22 0.1,-0.364 0.32,-0.32 0.22,0.044 0.4,-0.126296 0.4,-0.378436 0,-0.25214 0.288,-0.549844 0.64,-0.661564 0.352,-0.11172 0.64,-0.341014 0.64,-0.509542 0,-0.35737 3.869117,-4.208009 4.048227,-4.028896 0.13448,0.134478 -2.519344,3.157441 -4.597277,5.236747 -1.277478,1.278321 -4.472787,3.621691 -4.938364,3.621691 -0.118775,0 -0.184864,-0.211833 -0.146868,-0.470739 z M 23.599999,33.417047 c -0.132,-0.134041 -0.230872,-0.759712 -0.219716,-1.39038 0.01903,-1.075687 0.03969,-1.098074 0.333737,-0.361656 0.346677,0.868216 0.264166,2.136072 -0.114021,1.752036 z M 10.4,33.119793 c 0.176,-0.06032 2.408,-0.166605 4.959999,-0.236179 2.552,-0.06958 4.208,-0.02589 3.68,0.09708 -0.943064,0.21964 -9.265904,0.35363 -8.639999,0.139099 z m 43.752676,-2.399792 c 0.0066,-2.499956 0.02682,-2.585445 0.250253,-1.056742 0.133696,0.914792 0.130471,2.138792 -0.0072,2.72 -0.18247,0.770521 -0.24831,0.320022 -0.243085,-1.663258 z M 8.7260899,32.738244 c 0.3113495,-0.08113 0.7433494,-0.0758 0.96,0.01184 0.2166502,0.08766 -0.03809,0.154039 -0.5660902,0.147517 -0.528,-0.0065 -0.7052595,-0.07824 -0.3939098,-0.159373 z M 6.8807255,32.321175 c -0.119248,-0.192947 0.277489,-0.321174 0.9937222,-0.321174 1.3291766,0 1.3483948,0.128634 0.065163,0.436157 -0.4732137,0.113405 -0.949712,0.06166 -1.0588852,-0.114983 z m 12.7992735,0.01227 c -1.319669,-0.257078 -0.590074,-0.573633 0.8,-0.347102 0.654919,0.106728 0.92068,0.255518 0.64,0.358318 -0.264,0.09669 -0.912,0.09164 -1.44,-0.0112 z m 2.88,-0.333443 c -0.108774,-0.176 -0.04527,-0.32 0.141115,-0.32 0.186387,0 0.338885,0.144 0.338885,0.32 0,0.176 -0.0635,0.32 -0.141114,0.32 -0.07761,0 -0.230112,-0.144 -0.338886,-0.32 z M 15.561054,31.74643 c -0.08619,-0.139465 0.121307,-0.274516 0.461114,-0.300113 0.339807,-0.0256 0.617831,0.08851 0.617831,0.253573 0,0.364278 -0.859654,0.40136 -1.078945,0.04654 z m 39.504208,-0.573095 c 0.01536,-0.372781 0.09118,-0.448608 0.193331,-0.193333 0.09244,0.231 0.08107,0.507 -0.02525,0.613333 -0.106336,0.106334 -0.181965,-0.08267 -0.16807,-0.42 z M 71.248209,30.89025 c -0.09914,-0.258364 -0.04255,-0.554862 0.125763,-0.658885 0.787209,-0.486522 -0.344909,-3.991363 -1.289271,-3.991363 -0.178588,0 -0.324704,-0.161632 -0.324704,-0.359183 0,-0.264197 0.113565,-0.264931 0.429444,-0.0028 0.236192,0.196024 0.54728,0.249656 0.691302,0.119183 0.144026,-0.130473 0.158278,-0.05722 0.03168,0.162776 -0.126605,0.22 -0.113693,0.401124 0.0287,0.402497 0.750726,0.0072 1.417776,3.257926 0.752861,3.668866 -0.168314,0.104023 -0.224906,0.400522 -0.125763,0.658885 0.09915,0.258364 0.108262,0.469752 0.02026,0.469752 -0.088,0 -0.241117,-0.211388 -0.340263,-0.469752 z m -47.24821,-5.450248 c 0,-0.477028 0.137792,-0.752611 0.32,-0.64 0.176,0.108774 0.32,0.396774 0.32,0.64 0,0.243226 -0.144,0.531226 -0.32,0.64 -0.182208,0.112611 -0.32,-0.162972 -0.32,-0.64 z m -7.28,0.250799 c 0.484,-0.07332 1.276,-0.07332 1.76,0 0.484,0.07332 0.088,0.133308 -0.88,0.133308 -0.968,0 -1.364,-0.05999 -0.88,-0.133308 z M 13.2,25.388071 c -1.242561,-0.501384 0.0823,-0.747533 3.999999,-0.74317 4.280595,0.0048 6.13177,0.311308 4.507051,0.746334 -1.084295,0.290326 -1.457584,0.244548 -0.907051,-0.111234 0.326316,-0.210881 -0.627451,-0.311769 -2.978885,-0.3151 -2.225615,-0.0032 -3.38837,0.109196 -3.261115,0.3151 0.203042,0.328528 -0.646371,0.396025 -1.359999,0.10807 z m 51.029866,0.0034 c 0.214429,-0.08692 0.482455,-0.651546 0.595613,-1.254737 0.113159,-0.60319 0.323667,-1.096709 0.467795,-1.096709 0.144125,0 0.138151,0.432 -0.01328,0.96 -0.151427,0.528 -0.177376,0.962205 -0.05766,0.9649 0.119712,0.0027 0.0016,0.14449 -0.26234,0.3151 -0.264,0.17061 -0.624,0.301036 -0.8,0.289837 -0.176,-0.0112 -0.14456,-0.09148 0.06987,-0.17839 z M 53.008209,24.810248 c -0.09914,-0.258364 -0.04255,-0.554862 0.125763,-0.658886 0.168314,-0.104023 0.306026,0.107366 0.306026,0.469752 0,0.772661 -0.177955,0.85061 -0.431789,0.189134 z M 25.193586,23.474164 c -0.09153,-0.15079 0.03447,-0.459842 0.28,-0.686781 0.494697,-0.457245 0.58937,-0.148465 0.161513,0.526781 -0.151305,0.23879 -0.349986,0.31079 -0.441513,0.16 z m 1.046413,-1.664567 c 0,-0.148722 0.310292,-0.544722 0.689537,-0.88 l 0.689536,-0.609596 -0.56634,0.88 c -0.58396,0.90738 -0.812733,1.078972 -0.812733,0.609596 z m 38.745263,-0.556263 c 0.01536,-0.372782 0.09118,-0.448608 0.193331,-0.193333 0.09244,0.231 0.08107,0.507 -0.02525,0.613333 -0.106336,0.106333 -0.181965,-0.08267 -0.168071,-0.42 z m 2.571856,-0.949333 c -0.02042,-0.3608 -0.20992,-0.8288 -0.42112,-1.04 -0.298666,-0.298667 -0.296436,-0.384 0.01005,-0.384 0.496928,0 0.793964,0.74555 0.59814,1.501307 -0.12936,0.499255 -0.155036,0.488642 -0.187062,-0.07731 z m -47.477119,-0.04458 c -0.868921,-0.227072 -0.660025,-0.735018 0.32,-0.7781 4.398698,-0.193366 5.52,-0.04754 5.52,0.717867 0,0.282917 -4.798488,0.332409 -5.84,0.06023 z m 3.68,-0.330902 c -0.572,-0.07098 -1.508,-0.07098 -2.08,0 -0.572,0.07099 -0.104,0.129063 1.04,0.129063 1.144,0 1.612,-0.05808 1.04,-0.129063 z M 61.439998,19.82112 c 0,-0.186387 0.144,-0.249888 0.32,-0.141114 0.176,0.108774 0.32,0.261272 0.32,0.338885 0,0.07761 -0.144,0.141115 -0.32,0.141115 -0.176,0 -0.32,-0.152499 -0.32,-0.338886 z M 48.820571,18.653802 c -0.173658,-0.456064 -0.136902,-0.49282 0.179136,-0.179135 0.218694,0.217067 0.317014,0.475277 0.21849,0.573801 -0.09853,0.09852 -0.277456,-0.07908 -0.397626,-0.394666 z m -21.940572,-0.0938 c 0,-0.176 0.144,-0.32 0.32,-0.32 0.176,0 0.32,0.144 0.32,0.32 0,0.176 -0.144,0.32 -0.32,0.32 -0.176,0 -0.32,-0.144 -0.32,-0.32 z m 35.865263,-0.533829 c -0.01389,-0.205605 -0.108138,-0.637605 -0.209427,-0.96 -0.175056,-0.55719 -0.166026,-0.557888 0.182649,-0.01412 0.201744,0.314631 0.295987,0.746631 0.209424,0.96 -0.113593,0.279999 -0.164413,0.283927 -0.182646,0.01412 z m 0.614736,-0.174743 c 0,-0.138286 0.2075,-0.251428 0.461113,-0.251428 0.253613,0 0.531043,0.113142 0.616506,0.251428 0.08546,0.138286 -0.122035,0.251429 -0.461114,0.251429 -0.339078,0 -0.616505,-0.113143 -0.616505,-0.251429 z M 30.634665,17.560292 c 0.217067,-0.218693 0.475278,-0.317014 0.573801,-0.21849 0.09852,0.09852 -0.07908,0.277455 -0.394666,0.397625 -0.456063,0.173659 -0.49282,0.136903 -0.179135,-0.179135 z m 16.885333,0.03971 c -0.108774,-0.176 -0.04527,-0.32 0.141114,-0.32 0.186387,0 0.338886,0.144 0.338886,0.32 0,0.176 -0.0635,0.32 -0.141113,0.32 -0.07761,0 -0.230112,-0.144 -0.338887,-0.32 z m 18.546841,-0.34129 c -0.116009,-0.18771 -0.142297,-0.40992 -0.05842,-0.493801 0.08388,-0.08388 0.237779,0.0697 0.342,0.34129 0.216378,0.563874 0.03197,0.663058 -0.283584,0.152511 z m -20.306841,-0.29871 c -0.288412,-0.186388 -0.327881,-0.312156 -0.09889,-0.3151 0.209613,-0.0027 0.470112,0.1391 0.578886,0.3151 0.245536,0.397288 0.134759,0.397288 -0.48,0 z m -11.839999,-0.94538 c 0.264,-0.178651 0.756,-0.327025 1.093334,-0.32972 0.818701,-0.0065 0.563283,0.176613 -0.613334,0.439804 -0.701095,0.156823 -0.830547,0.127134 -0.48,-0.110084 z m 9.119999,-0.01462 c -0.617036,-0.26515 -0.614841,-0.275825 0.06111,-0.297509 0.385613,-0.01237 0.790112,0.121509 0.898886,0.297509 0.23392,0.37849 -0.07921,0.37849 -0.96,0 z m 22.930524,-0.32 c 0,-0.440001 0.07263,-0.620001 0.161405,-0.400001 0.08877,0.22 0.08877,0.580001 0,0.800001 -0.08877,0.22 -0.161405,0.04 -0.161405,-0.4 z m -4.050524,0.0751 c 0.176,-0.129305 0.479433,-0.5231 0.674297,-0.8751 0.194864,-0.352 0.626864,-0.687452 0.96,-0.74545 0.522381,-0.09095 0.506659,-0.03343 -0.114297,0.418145 -0.396,0.287978 -0.72,0.731431 -0.72,0.985451 0,0.25402 -0.252,0.459649 -0.56,0.456954 -0.316234,-0.0028 -0.420704,-0.107238 -0.24,-0.24 z M 36.399999,15.454166 c 0.396,-0.07627 1.044,-0.07627 1.44,0 0.396,0.07627 0.072,0.138678 -0.72,0.138678 -0.792,0 -1.116,-0.06241 -0.72,-0.138678 z m 4.48,0.0139 c 0.22,-0.08877 0.579999,-0.08877 0.799999,0 0.22,0.08877 0.04,0.161403 -0.399999,0.161403 -0.44,0 -0.62,-0.07263 -0.4,-0.161403 z M 64.959998,14.4 c -0.413661,-0.267327 -0.405213,-0.310877 0.06111,-0.315099 0.297613,-0.0027 0.630112,0.139099 0.738887,0.315099 0.250297,0.404992 -0.173322,0.404992 -0.8,0 z m 0.64,-0.96 c 0,-0.176 0.152499,-0.32 0.338886,-0.32 0.186387,0 0.249888,0.144 0.141114,0.32 -0.108775,0.176 -0.261274,0.32 -0.338887,0.32 -0.07761,0 -0.141113,-0.144 -0.141113,-0.32 z"
         id="path467" />
      <path
         style="fill:#969a96;stroke-width:0.32"
         d="m 37.926584,47.029346 c 0.132528,-0.214436 2.073415,-0.0113 2.073415,0.216998 0,0.07354 -0.494695,0.10039 -1.099325,0.05967 -0.604627,-0.04072 -1.042967,-0.165222 -0.97409,-0.276668 z m 5.673414,0.0928 c 1.364,-0.05998 3.596,-0.05998 4.96,0 1.364,0.05998 0.248,0.109063 -2.48,0.109063 -2.728,0 -3.844,-0.04908 -2.48,-0.109063 z m 12.594886,-0.906621 c -0.09614,-0.250534 -0.03532,-0.45552 0.135156,-0.45552 0.170476,0 0.273958,-0.171878 0.229958,-0.381952 -0.04441,-0.212006 0.275952,-0.38998 0.72,-0.4 0.635085,-0.01434 0.8,0.139517 0.8,0.746298 0,0.592371 -0.192406,0.784861 -0.855158,0.855523 -0.512884,0.05468 -0.92512,-0.09115 -1.029956,-0.364349 z m 1.023312,-0.623987 c -0.09852,-0.09853 -0.277456,0.07907 -0.397625,0.394666 -0.173658,0.456064 -0.136903,0.492819 0.179136,0.179136 0.218694,-0.217069 0.317014,-0.475277 0.218489,-0.573802 z M 38.117119,45.490043 c 0.02205,-0.505018 0.09498,-0.63073 0.179673,-0.309715 0.07841,0.297177 0.385703,0.591001 0.68288,0.652941 0.419703,0.08747 0.379591,0.156614 -0.179673,0.309715 -0.620695,0.169917 -0.71488,0.07986 -0.68288,-0.652941 z m 13.082879,0.464195 c 0,-0.06917 0.223479,-0.21152 0.496621,-0.316336 0.284774,-0.109277 0.413222,-0.05563 0.301114,0.125763 -0.187924,0.304068 -0.797735,0.449744 -0.797735,0.190573 z M 30.835616,45.36819 c -0.13537,-0.219033 -0.0487,-0.261053 0.23494,-0.113901 0.247194,0.128247 0.197443,0.02662 -0.110557,-0.225836 -0.625299,-0.512528 -0.769138,-1.035476 -0.18562,-0.674842 0.25276,0.156214 0.307077,0.05599 0.167202,-0.308518 -0.1773,-0.462039 -0.11035,-0.48808 0.464236,-0.18057 0.414771,0.221978 0.5935,0.233261 0.467579,0.0295 -0.11211,-0.181398 -0.03524,-0.434016 0.170827,-0.56137 0.241357,-0.149168 0.288688,-0.09244 0.133021,0.159428 -0.153783,0.248828 0.0029,0.454892 0.430556,0.566764 0.369709,0.09668 0.672199,0.319783 0.672199,0.495783 0,0.176 -0.324,0.238368 -0.72,0.138595 -0.695386,-0.175206 -0.698765,-0.165542 -0.09884,0.282678 0.341639,0.255245 0.557639,0.474004 0.48,0.486132 -1.389819,0.217075 -1.928208,0.193075 -2.105544,-0.09386 z m -4.786021,-7.688189 -0.609596,-0.72 0.72,0.609597 c 0.676622,0.57287 0.865677,0.830403 0.609596,0.830403 -0.06072,0 -0.384722,-0.324 -0.72,-0.72 z m 5.230404,0.188071 c 0.22,-0.08877 0.58,-0.08877 0.8,0 0.22,0.08877 0.04,0.161404 -0.4,0.161404 -0.44,0 -0.62,-0.07263 -0.4,-0.161404 z m 18.959999,-1.068071 c 0.264,-0.170611 0.624,-0.310198 0.8,-0.310198 0.176,0 0.104,0.139587 -0.16,0.310198 -0.264,0.170611 -0.624,0.310199 -0.8,0.310199 -0.176,0 -0.104,-0.139588 0.16,-0.310199 z m -9.439999,-1.28 c 0.108774,-0.176 0.261273,-0.32 0.338886,-0.32 0.07761,0 0.141114,0.144 0.141114,0.32 0,0.176 -0.1525,0.32 -0.338887,0.32 -0.186387,0 -0.249888,-0.144 -0.141113,-0.32 z m 12.053113,-0.16 c 0.290694,-0.352 0.580617,-1 0.644272,-1.44 0.111366,-0.769773 0.123206,-0.773635 0.313417,-0.102186 0.143859,0.507834 -0.03155,0.899876 -0.644275,1.440001 -0.613322,0.540649 -0.698429,0.568396 -0.313414,0.102185 z M 24.061375,32.529239 c -0.51603,-1.427055 -0.463942,-3.433165 0.108801,-4.1904 0.561972,-0.742993 0.584462,-0.603195 0.118156,0.734452 -0.260825,0.748202 -0.25151,1.426297 0.03606,2.625024 0.449565,1.873996 0.293009,2.368588 -0.263018,0.830924 z m 29.254197,-5.489238 c -0.131926,-0.528 -0.379292,-1.302609 -0.549702,-1.721353 -0.17041,-0.418743 -0.234333,-0.836853 -0.142054,-0.929132 0.285865,-0.285864 1.179046,2.196341 1.051868,2.92321 -0.102409,0.585333 -0.155824,0.54488 -0.360112,-0.272725 z M 24.639999,25.138886 c 0,-0.274387 0.144,-0.498885 0.32,-0.498885 0.176,0 0.32,0.135501 0.32,0.301114 0,0.165613 -0.144,0.390112 -0.32,0.498886 -0.176,0.108774 -0.32,-0.02673 -0.32,-0.301115 z m 40.639999,-1.032219 c 0,-0.469333 0.09893,-0.754399 0.219852,-0.633481 0.321773,0.321773 0.358343,1.486815 0.04667,1.486815 -0.146585,0 -0.266521,-0.384 -0.266521,-0.853334 z m 2.841971,-0.35672 c -0.105421,-0.63591 -0.05846,-0.934436 0.119069,-0.756908 0.161228,0.161231 0.239564,0.633756 0.17408,1.050055 -0.100762,0.640537 -0.145834,0.595468 -0.293149,-0.293147 z m -42.20197,-0.591662 c 0,-0.335161 1.549846,-2.678284 1.771536,-2.678284 0.370764,0 0.0717,0.648598 -0.811536,1.76 -0.528,0.664401 -0.96,1.07763 -0.96,0.918284 z m 25.599999,-0.451993 c 0,-0.183541 -0.684,-1.069461 -1.52,-1.968712 -1.472182,-1.583566 -1.483997,-1.611612 -0.375577,-0.891488 1.14175,0.741782 2.850102,3.193909 2.225132,3.193909 -0.181254,0 -0.329555,-0.150169 -0.329555,-0.333709 z m 13.851523,-1.106291 c 0.0026,-0.88 0.06455,-1.202021 0.138102,-0.7156 0.07355,0.48642 0.07159,1.20642 -0.0044,1.6 -0.07597,0.39358 -0.13615,-0.0044 -0.13375,-0.8844 z m 2.199001,-0.16 c 0,-0.44 0.07263,-0.62 0.161405,-0.4 0.08877,0.22 0.08877,0.58 0,0.8 -0.08877,0.22 -0.161405,0.04 -0.161405,-0.4 z m -0.918521,-1.653334 c 0.0243,-0.322666 0.140752,-0.586666 0.258771,-0.586666 0.118019,0 0.283619,0.264 0.367997,0.586666 0.09013,0.344656 -0.01661,0.586667 -0.258771,0.586667 -0.226704,0 -0.392304,-0.264 -0.367997,-0.586667 z m -38.172002,0.111401 c 0,-0.386737 0.607104,-0.83763 0.829023,-0.615711 0.08054,0.08054 -0.07304,0.328595 -0.34129,0.551226 -0.304123,0.252399 -0.487733,0.276675 -0.487733,0.06448 z m 36.213643,-1.321732 c -0.187193,-0.536985 -0.219452,-0.976335 -0.07169,-0.976335 0.293126,0 0.775488,1.589223 0.550617,1.814094 -0.07622,0.07622 -0.291734,-0.300775 -0.478927,-0.837759 z m -17.013644,0.143665 c -0.229616,-0.27667 -0.260717,-0.48 -0.07342,-0.48 0.17872,0 0.40783,0.216 0.509139,0.48 0.101305,0.264 0.134342,0.48 0.07342,0.48 -0.06092,0 -0.290038,-0.216 -0.509139,-0.48 z M 30.083091,18.396275 c 0.432591,-0.521241 3.04774,-1.769287 3.637586,-1.735991 0.197626,0.01115 0.0029,0.162551 -0.432976,0.336433 -0.53671,0.214162 -0.667251,0.393431 -0.404669,0.555716 0.216224,0.133633 -0.119472,0.239568 -0.759164,0.239568 -0.746616,0 -1.25303,0.189831 -1.451233,0.544 -0.167441,0.2992 -0.458914,0.544 -0.647719,0.544 -0.218719,0 -0.19761,-0.175525 0.05817,-0.483726 z m 16.187275,-0.716274 c -0.129964,-0.132 -0.693964,-0.409045 -1.253334,-0.615655 -0.716838,-0.264774 -0.828125,-0.382219 -0.377034,-0.397892 0.352,-0.01223 1.072,0.263866 1.6,0.613547 0.528,0.34968 0.804,0.636731 0.613335,0.637891 -0.190669,0.0012 -0.453002,-0.105891 -0.582967,-0.237891 z M 34.513039,16.238962 c 0.161229,-0.161231 0.633753,-0.239567 1.050051,-0.17408 0.640541,0.100761 0.595469,0.145831 -0.293146,0.293147 -0.63591,0.105422 -0.934435,0.05846 -0.756905,-0.119067 z m 7.493049,-0.140719 c 0.31135,-0.08113 0.74335,-0.0758 0.96,0.01186 0.21665,0.08766 -0.03809,0.154038 -0.56609,0.147517 -0.528,-0.0065 -0.70526,-0.07824 -0.39391,-0.159374 z m -4.946089,-0.316839 c 0.230998,-0.09244 0.506998,-0.08107 0.613334,0.02526 0.106333,0.106333 -0.08267,0.181965 -0.42,0.16807 -0.372784,-0.01535 -0.448608,-0.09118 -0.193334,-0.193333 z m 2.46,-0.101403 -1.28,-0.229181 1.181113,-0.04541 c 0.649613,-0.02497 1.270112,0.09859 1.378887,0.274591 0.108774,0.176 0.153273,0.299565 0.09889,0.27459 -0.05439,-0.02498 -0.674886,-0.148541 -1.378886,-0.27459 z"
         id="path465" />
      <path
         style="fill:#5da1a3;stroke-width:0.32"
         d="m 24.558738,51.539576 c -5.52405,-0.34577 -5.264177,-0.720189 0.802337,-1.155987 1.554632,-0.111677 2.720844,-0.331037 2.620774,-0.492954 -0.09917,-0.160454 0.328219,0.0083 0.949745,0.375008 1.305957,0.770535 4.108437,0.927223 5.331746,0.298106 0.427161,-0.21968 1.345836,-0.922391 2.041497,-1.561581 0.695664,-0.63919 1.055664,-0.874166 0.8,-0.522166 -0.255661,0.352 -0.680838,0.810428 -0.944838,1.018732 -0.372925,0.294247 1.504332,0.385232 8.415471,0.407872 l 8.895472,0.02915 -0.385085,-0.727872 c -0.279961,-0.529174 -0.122781,-0.448972 0.575795,0.293799 1.137687,1.20967 2.128816,1.510637 4.29066,1.302912 1.182828,-0.113655 1.840783,-0.386487 2.534255,-1.050874 0.817594,-0.783305 0.920845,-0.815318 0.81233,-0.251853 -0.118374,0.614682 0.0922,0.656138 4.408393,0.867901 2.492989,0.122311 4.892707,0.314554 5.332707,0.4272 0.764967,0.195847 0.750951,0.217427 -0.32,0.492823 -1.390963,0.357683 -41.012259,0.572089 -46.161259,0.249795 z m 2.501835,-2.485773 c -0.173659,-0.456064 -0.136903,-0.492819 0.179134,-0.179136 0.218694,0.217069 0.317015,0.475277 0.218491,0.573802 -0.09852,0.09852 -0.277455,-0.07908 -0.397625,-0.394666 z m -0.993732,-1.075091 c -0.116011,-0.187709 -0.142299,-0.40992 -0.05842,-0.493802 0.08388,-0.08388 0.237781,0.0697 0.342001,0.34129 0.216379,0.563875 0.03195,0.663059 -0.283583,0.152512 z m 26.138994,0.05639 c -0.266963,-0.169155 -0.310685,-0.351414 -0.113533,-0.473264 0.176349,-0.108988 0.403203,0.01702 0.504122,0.28 0.212041,0.552573 0.19207,0.562455 -0.390589,0.193264 z m 9.899427,-0.861766 c 0.01536,-0.372784 0.09118,-0.448608 0.193331,-0.193334 0.09244,0.230998 0.08107,0.506998 -0.02525,0.613334 -0.106336,0.106333 -0.181965,-0.08267 -0.16807,-0.42 z m -21.865263,-0.02528 c 0.22,-0.08877 0.58,-0.08877 0.8,0 0.22,0.08877 0.04,0.161405 -0.4,0.161405 -0.44,0 -0.62,-0.07263 -0.4,-0.161405 z m 10.799999,-0.108054 c 0.108775,-0.176 0.333274,-0.32 0.498887,-0.32 0.165612,0 0.301113,0.144 0.301113,0.32 0,0.176 -0.224499,0.32 -0.498886,0.32 -0.274387,0 -0.409888,-0.144 -0.301114,-0.32 z M 22.954666,43.800293 c 0.217067,-0.218695 0.475277,-0.317015 0.573801,-0.21849 0.09852,0.09853 -0.07908,0.277456 -0.394667,0.397626 -0.456063,0.173657 -0.49282,0.136902 -0.179134,-0.179136 z m 38.665905,-0.50649 c -0.173658,-0.456064 -0.136903,-0.492819 0.179136,-0.179136 0.218694,0.217069 0.317014,0.475277 0.218489,0.573802 -0.09853,0.09852 -0.277456,-0.07908 -0.397625,-0.394666 z m 0.738608,-0.333802 c -0.38858,-0.495478 -0.380487,-0.514233 0.07026,-0.162777 0.280192,0.218473 0.62728,0.290473 0.771302,0.16 0.144026,-0.130471 0.158279,-0.05722 0.03168,0.162777 -0.297532,0.517021 -0.349788,0.507447 -0.873238,-0.16 z m 1.770415,-2.273436 c 0.677226,-0.762733 0.830404,-0.832426 0.830404,-0.377821 0,0.169808 -0.324,0.478758 -0.72,0.686563 -0.716141,0.375795 -0.716733,0.374141 -0.110404,-0.308742 z M 26.671101,40.374033 c 0.291662,-0.322281 0.45798,-0.658281 0.369596,-0.746665 -0.08838,-0.08838 0.05786,-0.160701 0.324978,-0.160701 0.372584,0 0.322338,0.173865 -0.21578,0.746669 -0.822797,0.875827 -1.258239,1.021974 -0.478794,0.160697 z m -0.537769,-2.054032 c -0.322666,-0.337334 -0.525783,-0.674217 -0.451371,-0.748627 0.07441,-0.07441 0.39753,0.15447 0.718038,0.508627 0.751372,0.830256 0.507698,1.049562 -0.266667,0.24 z m -1.280217,-2.533837 c -0.310457,-0.716604 -0.632463,-1.753648 -0.715568,-2.304541 -0.10657,-0.706432 -0.01078,-0.577238 0.325023,0.438378 0.261869,0.792 0.649135,1.763783 0.860593,2.159517 0.211457,0.395734 0.319206,0.784781 0.239443,0.864544 -0.07976,0.07976 -0.399035,-0.44129 -0.709491,-1.157898 z m 29.036653,-1.989555 c -0.09358,-0.243862 -0.114218,-1.071862 -0.04587,-1.839999 l 0.124285,-1.396609 0.0559,1.653334 c 0.03303,0.976682 0.219613,1.719389 0.455907,1.814736 0.313299,0.12642 0.311123,0.166881 -0.01005,0.186666 -0.225526,0.01389 -0.486611,-0.174262 -0.580189,-0.418128 z M 18.159999,31.788071 c 0.22,-0.08877 0.58,-0.08877 0.8,0 0.22,0.08877 0.04,0.161404 -0.4,0.161404 -0.44,0 -0.62,-0.07263 -0.4,-0.161404 z m 4.905263,-1.574737 c 0.01535,-0.372781 0.09118,-0.448608 0.193334,-0.193333 0.09244,0.231 0.08107,0.507 -0.02526,0.613333 -0.106334,0.106334 -0.181965,-0.08267 -0.168071,-0.42 z m 30.75712,-1.893333 c 0.0065,-0.528 0.07824,-0.70526 0.159373,-0.39391 0.08113,0.31135 0.0758,0.74335 -0.01187,0.96 -0.08764,0.21665 -0.154023,-0.03809 -0.147501,-0.56609 z M 23.868488,27.946813 c 0.302063,-1.279135 0.692516,-1.603805 0.52067,-0.432949 -0.07862,0.535683 -0.276117,1.056274 -0.43888,1.156866 -0.172636,0.106695 -0.206713,-0.194913 -0.08179,-0.723917 z m 37.57151,-0.426812 c 0,-0.176 0.152499,-0.32 0.338886,-0.32 0.186387,0 0.249888,0.144 0.141114,0.32 -0.108775,0.176 -0.261274,0.32 -0.338887,0.32 -0.07761,0 -0.141113,-0.144 -0.141113,-0.32 z m -40.159999,-1.28 c -0.108774,-0.176 -0.04527,-0.32 0.141115,-0.32 0.186387,0 0.338885,0.144 0.338885,0.32 0,0.176 -0.0635,0.32 -0.141114,0.32 -0.07761,0 -0.230112,-0.144 -0.338886,-0.32 z m 41.994664,-0.359708 c 0.217069,-0.218694 0.475277,-0.317015 0.573802,-0.218491 0.09853,0.09852 -0.07907,0.277455 -0.394666,0.397625 -0.456064,0.173659 -0.492819,0.136903 -0.179136,-0.179134 z M 24.319999,24.460086 c 0,-0.247108 0.197754,-0.364114 0.451091,-0.266899 0.274001,0.105144 0.536723,-0.09671 0.669218,-0.514159 0.276749,-0.87196 0.513974,-0.679246 0.277414,0.225362 -0.202233,0.773337 -1.397723,1.248631 -1.397723,0.555696 z m 27.679999,-1.100085 c -0.108774,-0.176 -0.04527,-0.32 0.141114,-0.32 0.186387,0 0.338886,0.144 0.338886,0.32 0,0.176 -0.0635,0.32 -0.141113,0.32 -0.07761,0 -0.230112,-0.144 -0.338887,-0.32 z m -3.313526,-4.113782 c -0.495117,-0.380803 -0.592397,-0.579552 -0.283671,-0.579552 0.258426,0 0.634733,0.264 0.83624,0.586667 0.451418,0.722834 0.395568,0.722115 -0.552569,-0.0071 z M 29.599999,18.560001 c 0.318555,-0.352 0.630094,-0.64 0.692307,-0.64 0.06221,0 -0.06674,0.288 -0.28657,0.64 -0.219828,0.352 -0.531367,0.64 -0.692308,0.64 -0.160942,0 -0.03198,-0.288 0.286571,-0.64 z m 17.187382,-0.812172 c -0.226938,-0.257306 -0.28057,-0.467828 -0.119181,-0.467828 0.161389,0 0.472697,0.216 0.691798,0.48 0.513223,0.618396 -0.02659,0.606921 -0.572617,-0.01217 z m 19.325113,0.224754 c -0.0909,-0.14708 -0.04135,-0.68708 0.110108,-1.2 0.268583,-0.909562 0.274868,-0.902961 0.254538,0.267418 -0.0215,1.237932 -0.08134,1.390976 -0.364646,0.932582 z m -3.245655,-1.033872 c -0.116009,-0.18771 -0.142297,-0.40992 -0.05842,-0.493801 0.08388,-0.08388 0.23778,0.0697 0.342,0.34129 0.216378,0.563874 0.03197,0.663058 -0.283584,0.152511 z m -29.58684,-0.421389 c 0,-0.06747 0.288198,-0.198043 0.640441,-0.290157 0.352244,-0.09211 0.559744,-0.03691 0.461114,0.122678 -0.17224,0.278691 -1.101555,0.419983 -1.101555,0.167479 z m 9.919999,-0.167363 c 0,-0.159523 0.288,-0.214728 0.64,-0.122678 0.352,0.09205 0.64,0.222569 0.64,0.290041 0,0.06747 -0.288,0.122679 -0.64,0.122679 -0.352,0 -0.64,-0.130519 -0.64,-0.290042 z m -7.439999,-0.561888 c 0.22,-0.08877 0.58,-0.08877 0.8,0 0.22,0.08877 0.04,0.161403 -0.4,0.161403 -0.44,0 -0.62,-0.07263 -0.4,-0.161403 z m 5.606089,-0.0098 c 0.31135,-0.08113 0.74335,-0.0758 0.96,0.01186 0.21665,0.08766 -0.03809,0.154038 -0.56609,0.147517 -0.527999,-0.0065 -0.70526,-0.07824 -0.39391,-0.159374 z m 23.76309,-0.915481 c -0.346947,-0.262286 -0.822428,-0.403355 -1.056617,-0.313488 -0.234192,0.08987 -0.337827,0.02105 -0.230298,-0.152939 0.287303,-0.464866 0.637248,-0.390967 1.482285,0.313019 0.881363,0.73425 0.73009,0.853034 -0.19537,0.153408 z"
         id="path463" />
      <path
         style="fill:#978675;stroke-width:0.32"
         d="m 38.804399,46.490376 c 0.486419,-0.07355 1.206419,-0.07159 1.6,0.0044 0.39358,0.07596 -0.0044,0.136134 -0.8844,0.133734 -0.88,-0.0026 -1.20202,-0.06455 -0.7156,-0.138102 z m 12.075599,-0.05684 c 0.343856,-0.240122 -1.221875,-0.363574 -5.520252,-0.435248 l -6.000256,-0.100051 5.92079,0.01088 c 3.608566,0.0066 5.929952,0.132729 5.944253,0.322886 0.0129,0.1716 -0.167335,0.362564 -0.400535,0.424362 -0.279341,0.07403 -0.260233,-0.0019 0.056,-0.222832 z M 36.853381,40.099745 c -0.192976,-0.360576 -0.25232,-0.754141 -0.131878,-0.874582 0.120444,-0.120442 -0.05225,-0.114906 -0.383754,0.01232 -0.451734,0.173347 -0.537117,0.125113 -0.340803,-0.192531 0.182537,-0.295351 0.139104,-0.347908 -0.14328,-0.173383 -0.232333,0.143587 -0.513498,0.07524 -0.659002,-0.160189 -0.517395,-0.837158 -4.522083,-0.970377 -5.994665,-0.199417 -1.040449,0.544723 -1.378858,0.354909 -0.656,-0.367949 0.2112,-0.2112 0.263075,-0.384 0.115278,-0.384 -0.147798,0 -0.449015,0.246563 -0.669372,0.54792 -0.33875,0.46327 -0.480159,0.481936 -0.915278,0.120819 -0.283045,-0.234921 -0.514628,-0.625485 -0.514628,-0.867933 0,-0.242451 -0.176581,-0.404819 -0.392403,-0.360819 -0.215821,0.044 -0.441837,-0.244 -0.502256,-0.64 -0.06042,-0.396 -0.243838,-0.72 -0.407597,-0.72 -0.163759,0 -0.297744,-0.3312 -0.297744,-0.736 0,-0.4048 -0.1728,-0.9088 -0.384,-1.12 -0.260779,-0.260781 -0.270829,-0.384 -0.03132,-0.384 0.241353,0 0.206364,-0.479811 -0.110842,-1.52 -0.286717,-0.94021 -0.378123,-1.947214 -0.239633,-2.64 0.123141,-0.616 0.261176,-1.679688 0.306746,-2.363751 0.04557,-0.684062 0.207472,-1.332062 0.359782,-1.44 0.152311,-0.107937 0.555407,-0.827284 0.89577,-1.598548 0.340364,-0.771264 1.670402,-2.492065 2.955642,-3.824 2.028076,-2.101762 2.483559,-2.421701 3.447658,-2.421701 0.610972,0 0.944275,-0.102954 0.740672,-0.228787 -0.53954,-0.333455 1.472211,-1.094429 4.165939,-1.575825 1.882345,-0.336394 2.622444,-0.333799 4.133248,0.01449 1.012185,0.233343 1.984335,0.506173 2.160335,0.606289 0.176,0.100116 0.392,0.192363 0.48,0.204994 1.064765,0.152834 2.24,0.578993 2.24,0.81226 0,0.162016 0.220519,0.294575 0.490042,0.294575 0.269526,0 0.570829,0.210518 0.669565,0.467818 0.09873,0.2573 0.451289,0.554076 0.783456,0.659501 0.332166,0.105425 0.57086,0.290907 0.530438,0.412181 -0.04043,0.121275 0.0265,0.2205 0.148726,0.2205 0.419786,0 2.472836,2.181466 2.306436,2.450704 -0.09154,0.148114 -0.0054,0.269297 0.191337,0.269297 0.196775,0 0.268775,0.144 0.16,0.32 -0.108774,0.176 -0.06168,0.32 0.104653,0.32 1.035043,0 2.603305,6.109691 2.265257,8.825078 -0.129747,1.042208 -0.248057,2.155421 -0.262908,2.473809 -0.01485,0.318387 -0.151757,0.501782 -0.304234,0.407545 -0.15248,-0.09424 -0.54848,0.146784 -0.88,0.5356 -0.595328,0.698215 -0.59487,0.701082 0.03723,0.232455 0.594816,-0.440989 0.608541,-0.434407 0.1944,0.09325 -0.245081,0.312252 -0.515997,0.497334 -0.602035,0.411296 -0.08604,-0.08604 -0.457562,0.05448 -0.825603,0.312268 C 50.718714,36.589085 50.161633,36.8 49.848791,36.8 c -0.312838,0 -0.568797,0.131437 -0.568797,0.292083 0,0.160647 -0.410061,0.22746 -0.911248,0.148471 -0.575139,-0.09064 -1.061712,0.03768 -1.319184,0.347917 C 46.825201,37.858813 46.516673,38.08 46.363943,38.08 c -0.484582,0 0.796138,-1.278854 1.307168,-1.305264 0.288774,-0.01491 0.335782,-0.08779 0.114845,-0.178013 -0.265303,-0.108342 -0.185043,-0.58 0.276083,-1.622454 0.541478,-1.224099 0.628589,-1.961987 0.52128,-4.415532 -0.09169,-2.096434 -0.290467,-3.192497 -0.689382,-3.80132 -0.308298,-0.470522 -0.460308,-1.017676 -0.337799,-1.215898 0.13601,-0.220071 0.07889,-0.271498 -0.146701,-0.132077 -0.203193,0.125581 -0.369443,0.09225 -0.369443,-0.07406 0,-0.644212 -2.493273,-2.703077 -4.390153,-3.625249 -1.710102,-0.831369 -2.385552,-0.974614 -4.8,-1.017952 -2.956185,-0.05306 -2.685251,-0.137927 -6.484853,2.031264 -0.613255,0.350106 -0.929926,0.636557 -0.703715,0.636557 0.262972,0 0.136245,0.375045 -0.351413,1.04 -1.597286,2.178005 -1.895914,4.944404 -0.824438,7.637328 1.616239,4.062064 6.669337,6.351648 9.802307,4.441475 0.576253,-0.35134 1.275661,-0.638803 1.554237,-0.638803 0.303155,0 0.437344,-0.180217 0.334243,-0.448896 -0.09474,-0.246893 0.02928,-0.714893 0.275587,-1.04 0.259997,-0.343165 0.452112,-1.364778 0.458022,-2.435592 0.0175,-3.170336 -1.936569,-5.160662 -5.020854,-5.114035 -1.802966,0.02726 -2.648969,0.83479 -2.648969,2.528519 0,2.143927 2.617193,3.396913 3.530563,1.690266 0.377587,-0.70553 -0.257379,-1.25645 -0.673015,-0.583934 -0.212499,0.343828 -0.354684,0.354537 -0.659542,0.04968 -0.485971,-0.485969 0.114147,-2.006005 0.791978,-2.006005 0.79944,0 2.076374,1.267295 2.299209,2.281853 0.2564,1.167384 -0.386483,2.626032 -1.045875,2.373001 -0.240109,-0.09214 -0.354989,-0.03554 -0.255293,0.125773 0.396096,0.640896 -2.693494,0.781667 -3.686483,0.167965 -0.88312,-0.545798 -1.581542,-1.261437 -1.581542,-1.620527 0,-0.203335 -0.216,-0.548965 -0.48,-0.768065 -1.472664,-1.222202 0.617993,-6.178142 2.329232,-5.52148 0.301408,0.115662 0.413865,0.05774 0.286861,-0.147759 -0.243136,-0.393405 0.807376,-0.730887 2.183907,-0.701591 2.487705,0.05295 6.239999,2.371535 6.239999,3.855772 0,0.327282 0.129914,0.595058 0.288695,0.595058 0.383869,0 0.991305,1.787176 0.991305,2.91657 0,1.772518 -0.971542,3.931683 -2.359344,5.24343 -1.457891,1.377994 -3.964607,2.902714 -4.270051,2.597271 -0.103027,-0.103028 -0.362608,0.05239 -0.576841,0.345372 -0.357155,0.488442 -0.418666,0.478234 -0.740381,-0.122899 z m 1.706618,-0.739744 c -0.108775,-0.176 -0.369274,-0.317795 -0.578887,-0.315101 -0.228995,0.0029 -0.189526,0.128714 0.09889,0.315101 0.614758,0.39729 0.725536,0.39729 0.48,0 z m -5.013168,-1.880368 c 0.341606,-0.216544 0.322313,-0.310672 -0.09662,-0.471433 -0.287898,-0.110477 -0.443075,-0.07082 -0.344838,0.08813 0.09824,0.158954 -0.0022,0.361936 -0.22338,0.451072 -0.221097,0.08914 -0.257993,0.171232 -0.08199,0.182432 0.176,0.0112 0.512073,-0.101392 0.746832,-0.250205 z m -1.466832,-1.211561 c -0.22,-0.08877 -0.58,-0.08877 -0.8,0 -0.22,0.08877 -0.04,0.161404 0.4,0.161404 0.44,0 0.62,-0.07263 0.4,-0.161404 z m -3.2898,-4.108071 c 0,-0.176 -0.13959,-0.104 -0.3102,0.16 -0.17061,0.264 -0.3102,0.624 -0.3102,0.8 0,0.176 0.13959,0.104 0.3102,-0.16 0.17061,-0.264 0.3102,-0.624 0.3102,-0.8 z m 10.01084,-1.806961 c -0.17753,-0.177529 -0.22449,0.120997 -0.119069,0.756907 0.147315,0.888615 0.192387,0.933686 0.293149,0.293147 0.06548,-0.416299 -0.01286,-0.888824 -0.17408,-1.050054 z m -0.56104,-0.913039 c -0.874042,-0.375589 -1.12,-0.375589 -1.12,0 0,0.176 0.396,0.309879 0.88,0.297509 0.779788,-0.01993 0.80712,-0.05381 0.24,-0.297509 z m -8.64,-5.44 c 0.108774,-0.176 0.04527,-0.32 -0.141115,-0.32 -0.186386,0 -0.338885,0.144 -0.338885,0.32 0,0.176 0.0635,0.32 0.141115,0.32 0.07761,0 0.230111,-0.144 0.338885,-0.32 z m 20.646079,-2.087326 c 0.33817,-0.407471 0.318375,-0.454297 -0.120819,-0.285763 -0.288893,0.110859 -0.525261,0.330155 -0.525261,0.487325 0,0.411507 0.185239,0.353717 0.64608,-0.201562 z M 34.639999,17.708071 c -0.22,-0.08877 -0.58,-0.08877 -0.8,0 -0.22,0.08877 -0.04,0.161403 0.4,0.161403 0.44,0 0.62,-0.07263 0.4,-0.161403 z m 9.199999,-0.10807 c -0.264,-0.17061 -0.624,-0.3102 -0.8,-0.3102 -0.176,0 -0.104,0.13959 0.16,0.3102 0.264,0.170609 0.624,0.310199 0.8,0.310199 0.176,0 0.104,-0.13959 -0.16,-0.310199 z m -5.439999,-0.64 c 0,-0.176 -0.36,-0.32 -0.8,-0.32 -0.44,0 -0.8,0.144 -0.8,0.32 0,0.176 0.36,0.32 0.8,0.32 0.44,0 0.8,-0.144 0.8,-0.32 z m 28.954565,7.555598 c -0.334266,-0.244422 -0.793789,-0.373015 -1.021162,-0.285764 -0.477846,0.183367 -0.514617,-0.04327 -0.419955,-2.588286 0.0428,-1.150658 -0.05056,-1.804024 -0.240953,-1.686354 -0.339575,0.209869 -0.798064,-1.957856 -0.512,-2.420718 0.429523,-0.694981 1.623801,1.419695 1.437603,2.545524 -0.03638,0.22 0.142646,0.4 0.397846,0.4 0.314573,0 0.544743,0.541024 0.714723,1.68 0.137901,0.924 0.26162,1.752 0.274928,1.84 0.01331,0.088 0.138496,0.34 0.278189,0.56 0.338096,0.532466 -0.15311,0.508478 -0.909219,-0.0444 z"
         id="path461" />
      <path
         style="fill:#8f796e;stroke-width:0.32"
         d="m 56.899998,49.061406 c 0.230998,-0.09244 0.506998,-0.08107 0.613334,0.02525 0.106333,0.106333 -0.08267,0.181965 -0.42,0.168071 -0.372784,-0.01536 -0.448608,-0.09118 -0.193334,-0.193331 z m -2.5,-1.701404 c 0,-0.176 0.144,-0.32 0.32,-0.32 0.176,0 0.32,0.144 0.32,0.32 0,0.176 -0.144,0.32 -0.32,0.32 -0.176,0 -0.32,-0.144 -0.32,-0.32 z m 5.465264,-0.186666 c 0.01536,-0.372784 0.09118,-0.448608 0.193331,-0.193334 0.09244,0.230998 0.08107,0.506998 -0.02525,0.613334 -0.106336,0.106333 -0.181965,-0.08267 -0.16807,-0.42 z m -1.145264,-0.133334 c -0.108775,-0.176 -0.04527,-0.32 0.141113,-0.32 0.186388,0 0.338887,0.144 0.338887,0.32 0,0.176 -0.0635,0.32 -0.141114,0.32 -0.07761,0 -0.230112,-0.144 -0.338886,-0.32 z M 28.159999,46.738888 c 0,-0.165613 0.142351,-0.389095 0.316335,-0.496621 0.181395,-0.112109 0.235042,0.01635 0.125763,0.301114 -0.212733,0.554374 -0.442098,0.655805 -0.442098,0.195507 z m 11.52,2.43e-4 1.44,-0.220522 -1.44,-0.168924 c -0.792,-0.09291 1.60862,-0.181098 5.334713,-0.195981 5.338493,-0.02131 6.809104,0.06257 6.936944,0.395712 0.131417,0.342464 -1.155459,0.421578 -6.774714,0.416502 -3.815318,-0.0034 -6.288943,-0.1055 -5.496943,-0.226787 z m 16.959999,0.178176 c 0,-0.06748 0.355642,-0.190681 0.790317,-0.273776 0.434672,-0.08309 0.714176,-0.02787 0.621113,0.122698 -0.163865,0.265139 -1.41143,0.398678 -1.41143,0.151078 z M 27.545262,43.973336 c 0.01535,-0.372784 0.09118,-0.448608 0.193333,-0.193335 0.09244,0.230999 0.08107,0.506999 -0.02526,0.613335 -0.106333,0.106333 -0.181965,-0.08267 -0.16807,-0.42 z m 31.121401,0.02666 c 0,-0.264 0.209632,-0.48 0.46585,-0.48 0.377805,0 0.39056,0.09072 0.06748,0.48 -0.219101,0.264 -0.428733,0.48 -0.46585,0.48 -0.03712,0 -0.06748,-0.216 -0.06748,-0.48 z m -3.113702,-0.746665 c -0.09065,-0.146669 0.04485,-0.266669 0.301114,-0.266669 0.256256,0 0.465923,0.12 0.465923,0.266669 0,0.146665 -0.135501,0.266665 -0.301114,0.266665 -0.165612,0 -0.37528,-0.12 -0.465923,-0.266665 z M 27.839999,42.919182 c 0,-0.322739 0.9255,-1.153814 1.0744,-0.964781 0.05441,0.06908 -0.165067,0.3776 -0.487733,0.6856 -0.322667,0.308 -0.586667,0.433632 -0.586667,0.279181 z m 29.439999,-0.03918 c -0.413661,-0.267328 -0.405213,-0.310876 0.06111,-0.3151 0.297612,-0.0026 0.630112,0.1391 0.738886,0.3151 0.250297,0.404992 -0.173322,0.404992 -0.8,0 z m -16.319999,-2.24 c -0.288413,-0.186387 -0.327882,-0.312157 -0.09889,-0.315101 0.209613,-0.0026 0.470112,0.139101 0.578887,0.315101 0.245535,0.39729 0.134758,0.39729 -0.48,0 z m -4.768285,-0.76624 c -0.529379,-0.563497 -0.615725,-0.830592 -0.326339,-1.009443 0.270416,-0.167126 0.311571,-0.110624 0.131571,0.180621 -0.191779,0.310307 -0.114864,0.367385 0.287177,0.213107 0.338864,-0.130032 0.470941,-0.08422 0.344948,0.119638 -0.112295,0.181693 -0.03014,0.540045 0.18256,0.796333 0.628876,0.757751 0.161244,0.531252 -0.619917,-0.300256 z m 1.48295,0.406531 c 0.217069,-0.218694 0.475277,-0.317014 0.573802,-0.218489 0.09853,0.09853 -0.07908,0.277456 -0.394666,0.397626 -0.456064,0.173657 -0.492819,0.136902 -0.179136,-0.179137 z M 27.341161,38.879217 c -0.513068,-0.39712 -0.524181,-0.44703 -0.06386,-0.2868 0.349425,0.121629 0.63076,0.0026 0.754236,-0.319216 0.108313,-0.282259 0.347846,-0.5132 0.532293,-0.5132 0.184448,0 0.09673,0.263687 -0.194934,0.585968 -0.291662,0.322282 -0.43398,0.682282 -0.316263,0.8 0.398861,0.398861 -0.08675,0.216794 -0.711473,-0.266752 z m 12.893503,0.121075 c 0.217069,-0.218694 0.475277,-0.317014 0.573802,-0.218489 0.09852,0.09853 -0.07908,0.277456 -0.394666,0.397625 -0.456064,0.173658 -0.492819,0.136903 -0.179136,-0.179136 z m 3.285334,0.185559 c 0,-0.03712 0.192,-0.226832 0.426666,-0.421587 0.318838,-0.264612 0.426669,-0.247556 0.426669,0.06748 0,0.231872 -0.192,0.421588 -0.426669,0.421588 -0.234666,0 -0.426666,-0.03037 -0.426666,-0.06748 z m -2.23999,-0.70585 c 7e-6,-0.132 0.540006,-0.658982 1.2,-1.171075 l 1.19999,-0.931075 -1.102774,1.171075 c -1.151171,1.22247 -1.297232,1.327306 -1.297216,0.931075 z m 4.586656,-0.910509 c 0,-0.247219 0.174438,-0.449491 0.387635,-0.449491 0.2132,0 0.627869,-0.324 0.921488,-0.72 0.293619,-0.396 0.446685,-0.54 0.340144,-0.32 -0.106538,0.22 -0.0052,0.409127 0.225181,0.420285 0.230387,0.01117 0.09489,0.150515 -0.301114,0.309686 -0.396,0.159175 -0.72,0.42264 -0.72,0.585482 0,0.162842 -0.192,0.36975 -0.426665,0.459802 -0.234669,0.09005 -0.426669,-0.03854 -0.426669,-0.285764 z m -12.984672,-0.02208 c 0.221098,-0.08914 0.32162,-0.292118 0.22338,-0.451072 -0.09824,-0.15895 0.05694,-0.198611 0.344838,-0.08813 0.418934,0.160762 0.438227,0.25489 0.09662,0.471434 -0.234759,0.148812 -0.570832,0.261404 -0.746832,0.250204 -0.176,-0.0112 -0.139104,-0.09329 0.08199,-0.182432 z m 14.318006,-0.107411 c 0.108775,-0.176 0.441274,-0.317795 0.738887,-0.315101 0.466326,0.0042 0.474774,0.04777 0.06111,0.315101 -0.626678,0.404992 -1.050297,0.404992 -0.8,0 z M 36.159999,36.899704 c 2.255273,-0.169901 2.789462,-0.359764 3.998169,-1.421021 0.651773,-0.572266 1.044627,-0.769837 0.928378,-0.466893 -0.110842,0.288845 -0.809309,0.88136 -1.552154,1.316694 -1.040195,0.609594 -1.748678,0.778669 -3.082509,0.73561 -1.681055,-0.05427 -1.689622,-0.05909 -0.291884,-0.16439 z M 33.0479,36.168315 c -1.234436,-0.752666 -2.967901,-2.262119 -2.967901,-2.584368 0,-0.126644 0.54,0.273628 1.2,0.889494 0.66,0.615866 1.668,1.321219 2.24,1.567453 0.572,0.246234 1.04,0.517763 1.04,0.603402 0,0.301331 -0.490435,0.14695 -1.512099,-0.475981 z m -1.767901,0.09976 c 0.22,-0.08877 0.58,-0.08877 0.8,0 0.22,0.08877 0.04,0.161404 -0.4,0.161404 -0.44,0 -0.62,-0.07263 -0.4,-0.161404 z m 19.731135,-0.182317 c -0.12856,-0.223165 -0.11264,-0.295738 0.03537,-0.161274 0.148016,0.134464 0.675101,-0.144477 1.171306,-0.619869 0.496201,-0.475392 0.894217,-0.729408 0.884479,-0.56448 -0.0097,0.164928 -0.431638,0.626458 -0.937558,1.025623 -0.693805,0.547401 -0.977296,0.626041 -1.1536,0.32 z M 43.8498,35.680001 c 0,-0.176 0.139587,-0.536 0.310198,-0.8 0.170612,-0.264 0.310199,-0.336 0.310199,-0.16 0,0.176 -0.139587,0.536 -0.310199,0.8 -0.170611,0.264 -0.310198,0.336 -0.310198,0.16 z m 3.84,-0.32 c 0,-0.176 0.139587,-0.536 0.310198,-0.8 0.170611,-0.264 0.310199,-0.336 0.310199,-0.16 0,0.176 -0.139588,0.536 -0.310199,0.8 -0.170611,0.264 -0.310198,0.336 -0.310198,0.16 z M 35.926088,34.018244 c 0.311351,-0.08113 0.743351,-0.0758 0.96,0.01184 0.21665,0.08766 -0.03809,0.154039 -0.566089,0.147517 -0.528,-0.0065 -0.705261,-0.07824 -0.393911,-0.159373 z m 5.534483,-0.192045 c 0.12017,-0.31559 0.299101,-0.49319 0.397626,-0.394665 0.09853,0.09853 2.05e-4,0.356733 -0.21849,0.573801 -0.316038,0.313684 -0.352793,0.276929 -0.179136,-0.179136 z m -3.458579,-0.118793 c 0.221098,-0.08914 0.306848,-0.316016 0.190557,-0.504179 -0.12497,-0.202208 -0.06036,-0.24874 0.158006,-0.113783 0.558365,0.345088 0.442708,0.833863 -0.190556,0.805293 -0.33784,-0.01523 -0.400522,-0.08956 -0.158007,-0.187331 z m -4.853548,-1.091959 c -0.825546,-0.981104 -1.116573,-1.79129 -0.508445,-1.415446 0.176,0.108774 0.32,0.364688 0.32,0.568698 0,0.20401 0.382397,0.69951 0.849773,1.101113 0.467376,0.401603 0.696176,0.730189 0.508444,0.730189 -0.187728,0 -0.714124,-0.44305 -1.169772,-0.984554 z m -4.978645,0.504554 c 0,-0.176 0.13959,-0.536 0.3102,-0.8 0.17061,-0.264 0.3102,-0.336 0.3102,-0.16 0,0.176 -0.13959,0.536 -0.3102,0.8 -0.17061,0.264 -0.3102,0.336 -0.3102,0.16 z m 10.8702,-0.141114 c 0,-0.165612 0.142352,-0.389094 0.316336,-0.49662 0.181395,-0.112109 0.23504,0.01635 0.125763,0.301113 -0.212733,0.554375 -0.442099,0.655805 -0.442099,0.195507 z m -3.884551,-1.637878 -0.755449,-0.658992 0.88,0.535795 c 0.484,0.294688 0.88,0.591234 0.88,0.658992 0,0.249869 -0.267357,0.107271 -1.004551,-0.535795 z m 3.526522,-0.231062 c -0.105421,-0.63591 -0.05846,-0.934436 0.119069,-0.756907 0.161228,0.16123 0.239564,0.633755 0.17408,1.050054 -0.100762,0.640539 -0.145834,0.595468 -0.293149,-0.293147 z m 0.876451,-0.117838 c -0.113312,-0.566562 -0.456314,-1.327562 -0.762224,-1.691111 -0.552566,-0.656682 -0.551616,-0.657124 0.145664,-0.06782 0.656179,0.554573 1.301539,2.310086 0.970813,2.640812 -0.08153,0.08153 -0.240941,-0.315322 -0.354253,-0.881885 z m -2.691712,0.349698 c 0.301549,-0.175803 0.465568,-0.530183 0.365763,-0.790269 -0.180557,-0.470522 0.239968,-0.652428 0.622935,-0.269462 0.343337,0.343337 -0.406612,1.39848 -0.986666,1.388194 -0.516979,-0.0092 -0.517098,-0.02818 -0.0019,-0.328463 z m -7.970818,-2.221806 c 0,-0.968 0.05999,-1.364 0.133309,-0.88 0.07332,0.484 0.07332,1.276 0,1.76 -0.07332,0.484 -0.133309,0.088 -0.133309,-0.88 z m 7.157442,1.386667 c -0.388275,-0.388275 -0.221533,-1.301541 0.319056,-1.747485 0.48441,-0.399603 0.496608,-0.372042 0.13536,0.305823 -0.218368,0.409753 -0.318464,0.949753 -0.222435,1.2 0.188976,0.492463 0.105635,0.57928 -0.231981,0.241662 z m 5.418665,-0.298667 c -0.113884,-0.296781 -0.135065,-0.611602 -0.04706,-0.699602 0.088,-0.088 0.253181,0.08282 0.367065,0.379602 0.113885,0.296781 0.135066,0.611602 0.04707,0.699602 -0.088,0.088 -0.253181,-0.08282 -0.367066,-0.379602 z m 29.507999,-0.346597 c 0.230999,-0.09244 0.506999,-0.08107 0.613335,0.02526 0.106333,0.106334 -0.08267,0.181966 -0.42,0.168071 -0.372784,-0.01535 -0.448608,-0.09118 -0.193335,-0.193334 z M 37.119999,29.440001 c 0,-0.400935 0.339596,-0.400935 0.96,0 0.388147,0.25084 0.34222,0.311138 -0.24,0.3151 -0.396,0.0027 -0.72,-0.1391 -0.72,-0.3151 z m 11.225263,-0.506667 c 0.01536,-0.372781 0.09118,-0.448608 0.193331,-0.193333 0.09244,0.231 0.08107,0.507 -0.02525,0.613333 -0.106336,0.106334 -0.181964,-0.08267 -0.16807,-0.42 z m -8.665263,-1.006689 c -0.792,-0.629197 -1.296,-1.08147 -1.12,-1.005051 1.272249,0.552407 2.007942,1.049537 2.339958,1.581179 0.489398,0.783654 0.494982,0.78629 -1.219958,-0.576128 z m 3.839999,0.69447 c 0,-0.274386 0.144,-0.409888 0.32,-0.301114 0.176,0.108774 0.32,0.333272 0.32,0.498885 0,0.165613 -0.144,0.301115 -0.32,0.301115 -0.176,0 -0.32,-0.224499 -0.32,-0.498886 z m -9.279999,-0.08782 c 0,-0.425778 1.190947,-1.84719 1.385232,-1.653295 0.08818,0.088 -0.187427,0.56403 -0.612455,1.057844 -0.425027,0.493815 -0.772777,0.761768 -0.772777,0.595451 z m 8.574502,-0.646045 c 0.310755,-0.197134 0.150566,-0.532651 -0.64,-1.340478 -0.579975,-0.59264 -0.766502,-0.874332 -0.414503,-0.62598 1.467578,1.035441 2.021357,2.247168 1.021114,2.234308 -0.268608,-0.0035 -0.258752,-0.08252 0.03339,-0.26785 z m 4.885622,-0.753401 C 47.45227,26.554232 47.191537,25.936 47.120721,25.76 c -0.07082,-0.176 0.182788,0.145784 0.563568,0.715077 0.380778,0.569292 0.641508,1.187525 0.579399,1.373849 -0.06211,0.186325 -0.315712,-0.13546 -0.563565,-0.715077 z m -18.433282,0.04486 c -0.116011,-0.187709 -0.142299,-0.40992 -0.05842,-0.493801 0.08388,-0.08388 0.237781,0.0697 0.342001,0.34129 0.216378,0.563874 0.03195,0.663058 -0.283583,0.152511 z m 3.365155,-0.555834 c 0.405465,-0.810298 2.131264,-1.987016 2.888003,-1.969155 0.264,0.0062 -0.024,0.224808 -0.64,0.485726 -0.616,0.260919 -1.456791,0.867282 -1.868426,1.347475 -0.639475,0.745982 -0.694729,0.765773 -0.379577,0.135954 z M 29.923609,24.8394 c 0.302498,-0.461669 0.610501,-0.839399 0.684452,-0.839399 0.231481,0 -0.513569,1.233272 -0.882975,1.461577 -0.19331,0.119472 -0.103974,-0.160508 0.198523,-0.622178 z m 9.43639,0.280601 c -0.616,-0.237221 -0.904,-0.43577 -0.64,-0.441222 0.264,-0.0055 0.912,0.187898 1.44,0.429665 1.235859,0.565891 0.661024,0.574195 -0.8,0.01156 z m 5.962211,-1.283413 c -0.856784,-0.790123 -1.432784,-1.432366 -1.28,-1.427207 0.300473,0.01015 1.925139,1.443202 2.636969,2.325972 0.735629,0.912283 0.278701,0.609644 -1.356969,-0.898765 z m 20.277788,0.527788 c 0,-0.151594 0.36,-0.206807 0.8,-0.122696 0.44,0.08411 0.8,0.208143 0.8,0.275625 0,0.06748 -0.36,0.122696 -0.8,0.122696 -0.44,0 -0.8,-0.124032 -0.8,-0.275625 z M 29.119999,24.000001 c 0,-0.176 0.152499,-0.32 0.338885,-0.32 0.186387,0 0.249889,0.144 0.141115,0.32 -0.108774,0.176 -0.261272,0.32 -0.338885,0.32 -0.07761,0 -0.141115,-0.144 -0.141115,-0.32 z m 1.977161,-0.665886 c 0.156391,-0.484537 3.368404,-2.544197 3.928682,-2.519215 0.183786,0.0082 -0.313843,0.355595 -1.105843,0.772 -0.792,0.416405 -1.784119,1.082051 -2.204705,1.479215 -0.420816,0.397379 -0.698791,0.517899 -0.618134,0.268 z M 65.79953,23.18763 c -0.109744,-0.285985 -0.178361,-1.192196 -0.152486,-2.013801 0.04604,-1.461853 0.05171,-1.452731 0.264714,0.426172 0.232467,2.050557 0.206483,2.418173 -0.112228,1.587629 z M 49.599998,22.114237 c 0,-0.15717 0.236368,-0.376466 0.525261,-0.487325 0.439194,-0.168534 0.458989,-0.121708 0.120819,0.285763 -0.460841,0.555279 -0.64608,0.613069 -0.64608,0.201562 z m -7.68,-0.514236 c -0.44,-0.251527 -0.655999,-0.457322 -0.479999,-0.457322 0.175999,0 0.679999,0.205795 1.119999,0.457322 0.44,0.251526 0.656,0.457321 0.48,0.457321 -0.176,0 -0.68,-0.205795 -1.12,-0.457321 z m -1.999999,-0.69193 c 0.22,-0.08877 0.58,-0.08877 0.8,0 0.22,0.08877 0.04,0.161403 -0.4,0.161403 -0.44,0 -0.62,-0.07263 -0.4,-0.161403 z m -3.52,-0.333905 c 0.396,-0.07627 1.044,-0.07627 1.44,0 0.396,0.07627 0.072,0.138678 -0.72,0.138678 -0.792,0 -1.116,-0.06241 -0.72,-0.138678 z m 12.079999,-0.734165 c -0.108774,-0.176 -0.04527,-0.32 0.141114,-0.32 0.186387,0 0.338886,0.144 0.338886,0.32 0,0.176 -0.0635,0.32 -0.141113,0.32 -0.07761,0 -0.230112,-0.144 -0.338887,-0.32 z m -14.639999,-2.13193 c 0.22,-0.08877 0.58,-0.08877 0.8,0 0.22,0.08877 0.04,0.161403 -0.4,0.161403 -0.44,0 -0.62,-0.07263 -0.4,-0.161403 z m 9.359999,-0.10807 c -0.264,-0.17061 -0.336,-0.3102 -0.16,-0.3102 0.176,0 0.536,0.13959 0.8,0.3102 0.264,0.170609 0.336,0.310199 0.16,0.310199 -0.176,0 -0.536,-0.13959 -0.8,-0.310199 z m 21.76,-0.120818 c 0,-0.06645 0.252,-0.31845 0.56,-0.56 0.507539,-0.398039 0.518857,-0.38672 0.120819,0.120818 -0.418039,0.533039 -0.680819,0.702553 -0.680819,0.439182 z M 36.799999,16.960001 c 0,-0.176 0.36,-0.32 0.8,-0.32 0.44,0 0.8,0.144 0.8,0.32 0,0.176 -0.36,0.32 -0.8,0.32 -0.44,0 -0.8,-0.144 -0.8,-0.32 z m 28.099999,-0.858597 c 0.230998,-0.09244 0.506998,-0.08107 0.613334,0.02526 0.106333,0.106333 -0.08267,0.181965 -0.42,0.16807 -0.372784,-0.01535 -0.448608,-0.09118 -0.193334,-0.193333 z"
         id="path459" />
      <path
         style="fill:#5d5651;stroke-width:0.32"
         d="m 30.667544,50.8854 c -1.913296,-0.351987 -3.636732,-1.689952 -4.622208,-3.588381 -0.694881,-1.338621 -0.718219,-4.254365 -0.04432,-5.537018 0.664813,-1.26536 2.413878,-2.915878 3.539815,-3.340374 2.118479,-0.798698 4.918573,-0.232829 6.517763,1.317168 l 1.060093,1.027482 2.282457,-1.102138 c 2.572403,-1.242144 4.56409,-3.229751 5.07328,-5.062883 0.43856,-1.578868 0.408102,-3.979651 -0.06425,-5.064198 -1.469584,-3.374244 -3.730963,-4.895881 -7.273004,-4.893861 -3.62265,0.0021 -5.340228,1.705873 -5.065027,5.024417 0.245769,2.963664 2.282457,4.743494 5.017811,4.384985 1.484237,-0.194531 1.920918,-0.480326 2.560809,-1.675971 0.819261,-1.530801 -0.622073,-3.894627 -2.374736,-3.894627 -1.538268,0 -1.937638,1.890643 -0.474348,2.24558 l 0.79832,0.193641 -0.72,0.391648 c -0.8356,0.454529 -1.786733,0.08555 -2.312666,-0.897166 -0.504307,-0.942307 -0.398637,-1.479862 0.501111,-2.549151 1.130492,-1.343513 2.727359,-1.352668 4.558585,-0.02614 3.096201,2.242876 2.984029,6.059971 -0.241968,8.233967 -2.872688,1.935905 -8.015158,-0.08098 -9.600048,-3.765161 -0.660554,-1.535498 -0.958632,-5.32646 -0.39124,-4.975792 0.150575,0.09306 0.208351,-0.173033 0.128391,-0.591319 -0.265148,-1.38703 1.853273,-3.809731 4.547617,-5.200815 1.43465,-0.740706 1.840595,-0.80413 4.16,-0.649951 3.064979,0.20374 4.881203,0.943692 7.014579,2.857824 2.2648,2.032052 3.229331,4.255641 3.232835,7.45283 0.0022,2.063354 -0.146291,2.860368 -0.765722,4.108263 -0.422691,0.851545 -1.070691,1.670416 -1.439999,1.819715 -0.369312,0.149303 -0.538375,0.280583 -0.375696,0.291738 0.367369,0.02518 -1.099901,1.620285 -1.490445,1.620285 -0.155709,0 -0.174967,-0.18 -0.04279,-0.4 0.16329,-0.271796 0.06678,-0.259236 -0.301113,0.03918 -0.634311,0.514528 -0.715536,0.808541 -0.141428,0.511936 0.22,-0.11366 0.04,0.09066 -0.4,0.454039 -1.043641,0.86191 -3.573718,1.707462 -4.350047,1.453785 -0.50089,-0.163676 -0.524125,-0.137574 -0.129952,0.145972 0.391104,0.28134 0.323849,0.346195 -0.363152,0.350188 -0.839978,0.0049 -0.842532,0.01261 -0.678397,2.057367 0.213961,2.665542 -0.009,3.45168 -1.422525,5.016317 -1.799129,1.991424 -3.553936,2.649763 -5.908381,2.216614 z m -2.065447,-4.342019 c 0.109279,-0.284775 0.05563,-0.413223 -0.125763,-0.301114 -0.173984,0.107526 -0.316335,0.331008 -0.316335,0.496621 0,0.460298 0.229365,0.358867 0.442098,-0.195507 z m 4.464151,-1.475114 c 0.252877,-0.967002 -0.313232,-1.868266 -1.173508,-1.868266 -0.846887,0 -1.492741,0.553808 -1.492741,1.28 0,1.334762 2.33624,1.850215 2.666249,0.588266 z m -5.327653,-1.288266 c -0.102152,-0.255273 -0.177978,-0.179449 -0.193333,0.193335 -0.01389,0.337331 0.06174,0.526333 0.16807,0.42 0.106334,-0.106336 0.117702,-0.382336 0.02526,-0.613335 z m 1.175804,-1.8256 c -0.1489,-0.189033 -1.0744,0.642042 -1.0744,0.964781 0,0.154451 0.264,0.02883 0.586667,-0.279181 0.322666,-0.308 0.542146,-0.616521 0.487733,-0.6856 z m 25.645445,8.356234 c -1.410892,-0.887709 -2.773177,-3.550352 -2.51366,-4.91305 0.537446,-2.822086 2.439926,-4.555696 5.027552,-4.581296 4.688198,-0.04638 6.947321,5.127575 3.740137,8.565847 -1.138778,1.220832 -1.342858,1.309725 -3.254422,1.417562 -1.588669,0.08962 -2.251677,-0.01846 -2.999607,-0.489063 z m 2.953488,-1.223968 c -0.106336,-0.106333 -0.382336,-0.117699 -0.613334,-0.02525 -0.255274,0.102151 -0.17945,0.177978 0.193334,0.193331 0.337332,0.01389 0.526333,-0.06174 0.42,-0.16807 z m -2.473334,-1.726665 c 0,-0.176 -0.144,-0.32 -0.32,-0.32 -0.176,0 -0.32,0.144 -0.32,0.32 0,0.176 0.144,0.32 0.32,0.32 0.176,0 0.32,-0.144 0.32,-0.32 z m 5.018595,-0.38 c -0.10215,-0.255274 -0.177978,-0.17945 -0.193331,0.193334 -0.01389,0.337331 0.06173,0.526333 0.16807,0.42 C 60.139665,47.487 60.151031,47.211 60.05858,46.980002 Z m -0.858595,0.06 c 0,-0.176 -0.152499,-0.32 -0.338887,-0.32 -0.186387,0 -0.249888,0.144 -0.141113,0.32 0.108774,0.176 0.261273,0.32 0.338886,0.32 0.07761,0 0.141114,-0.144 0.141114,-0.32 z m -1.12,-1.120001 c 0,-0.809881 -0.137894,-0.975862 -0.881821,-1.06143 -1.043785,-0.120061 -1.418163,0.532464 -0.881168,1.535843 0.571303,1.067492 1.762989,0.74681 1.762989,-0.474413 z m 1.12,-1.92 c 0.323075,-0.389283 0.31032,-0.48 -0.06748,-0.48 -0.256218,0 -0.46585,0.216 -0.46585,0.48 0,0.264 0.03037,0.48 0.06748,0.48 0.03712,0 0.246749,-0.216 0.46585,-0.48 z m -2.88,-0.746665 c 0,-0.146669 -0.209667,-0.266669 -0.465923,-0.266669 -0.256259,0 -0.39176,0.12 -0.301114,0.266669 0.09064,0.146665 0.300311,0.266665 0.465923,0.266665 0.165613,0 0.301114,-0.12 0.301114,-0.266665 z m 1.76,-0.373335 c -0.108774,-0.176 -0.441274,-0.317795 -0.738886,-0.3151 -0.466327,0.0042 -0.474775,0.04777 -0.06111,0.3151 0.626678,0.404992 1.050297,0.404992 0.8,0 z m 8.8,-15.222857 c 0,-0.237522 0.859622,-1.097143 1.097142,-1.097143 0.100573,0 0.182858,0.288 0.182858,0.64 0,0.426666 -0.213335,0.64 -0.64,0.64 -0.352,0 -0.64,-0.08229 -0.64,-0.182857 z m -3.52,-10.697143 c -0.688951,-0.68895 -0.836714,-1.28 -0.32,-1.28 0.176,0 0.284,-0.157839 0.24,-0.350753 -0.144752,-0.634645 1.230883,-0.91994 1.96304,-0.407118 0.832083,0.582813 0.868908,1.444967 0.09176,2.148274 -0.764861,0.69219 -1.196333,0.668069 -1.974803,-0.110403 z m 2.153334,-0.833334 c -0.106336,-0.106333 -0.382336,-0.117702 -0.613334,-0.02526 -0.255274,0.102152 -0.17945,0.177979 0.193334,0.193334 0.337331,0.01389 0.526333,-0.06174 0.42,-0.168071 z"
         id="path457" />
    </g>
  </g>
</svg>
